<svg xmlns="http://www.w3.org/2000/svg" viewBox="0 0 470.74 474.74">
  <title>logo</title>
  <path d="M21.91,100.56l91.58,394.76,266-251.8,59.69,59.66,53.44-282.6L206.5,74,268,135,125.19,322.95Zm193.2,182.18a20.8,20.8,0,0,1,27.81-19.57l34.21-35.55-30.81-33.06L260,181.82l16.19,17.37L409.82,60.9,470.34,42,452.89,102.5,317.05,243l16.86,18.1-13.67,12.74-30.36-32.58L255.8,276.73a20.79,20.79,0,1,1-40.69,6h0Zm75.62-68.88,13.46,13L437.6,88.26l-13.46-13L290.73,213.85h0Z" transform="translate(-21.91 -20.57)" fill="#b62025"/>
</svg>
