<svg xmlns="http://www.w3.org/2000/svg" viewBox="0 0 101.3 97.97"><title>rogue</title><path d="M101.36,150.95c1.88-8.64,7.33-14.06,15.39-17.22,4.18-1.64,5.65-5.75,7.42-9.27,2.35,0.38,3,2,4,3-1.18,1.87-2.51,3.81-4,5.79a108.21,108.21,0,0,1-7.13,8.45c-1.65,1.82-3.6,4-6.31,6.67-2.38,2.36-5.52,5.31-9.4,8.54v-6Z" transform="translate(-101.36 -102.01)" fill="#d0d1d3"/><path d="M101.36,156.95q4.66-4,9.5-8.58,4.61-4.35,8.75-8.58l9.93-9.35c1.77,0.42,2.14,1.78,2.46,3.48-4.17,2.11-6.84,5.68-8.63,9.88-3.55,8.35-10.58,11.94-18.73,14.13-1.1.3-2.18,0.69-3.28,1v-2Z" transform="translate(-101.36 -102.01)" fill="#a7a9ac"/><path d="M186.5,122.92a7.57,7.57,0,0,1,.93-6.2,6.75,6.75,0,0,1,2.63-2.09,7.41,7.41,0,0,1,4.3-.6c2,0.34,3.2,1.49,5,3.17,1.93,1.85,3.22,3.08,3.33,5a5.74,5.74,0,0,1-1.29,3.75,9.3,9.3,0,0,1-6.42,3A8.78,8.78,0,0,1,186.5,122.92Z" transform="translate(-101.36 -102.01)" fill="#d1d2d4"/><path d="M136.4,178.86c4.12-3.6,7.44-6.54,9.67-8.5,5-4.42,6.87-6.09,10-8.83,3.82-3.3,7-5.92,8.92-7.54,2.55,0.82,3.78,2.76,5.15,4.71a3,3,0,0,1-.9,1.12c-6.87,1.83-11.14,6.73-13.62,12.86-5.49,13.57-16.52,16.41-29.41,16.19Z" transform="translate(-101.36 -102.01)" fill="#bcbdc0"/><path d="M147.9,167.7c-1.23,1.23-2.36,2.35-7.5,7.38-5.92,5.79-10.79,10.53-14.15,13.8a1.8,1.8,0,0,1-1.63-.19,1.69,1.69,0,0,1,0-1.66c3.71-10.67,7.05-21.42,18.93-26.5,6-2.58,12.07-5.73,14.53-12.61a8.86,8.86,0,0,1,5.14,3.48C157,158.4,151.7,163.88,147.9,167.7Z" transform="translate(-101.36 -102.01)" fill="#fff"/><path d="M154.86,124.9c4.54,8.37,10,14.41,17.22,18.95,4.5,2.83,6,7.78,7.24,12.62a33.24,33.24,0,0,1,1,12.49c-4-10.49-13.09-16.68-19.93-24.74C155.69,138.62,154,132.1,154.86,124.9Z" transform="translate(-101.36 -102.01)" fill="#fff"/><path d="M133.44,193.76c10.19,3.1,17.48-.71,23.7-7.91,5.86-6.77,12.88-4.84,20.45-2.26a9.37,9.37,0,0,1-5.79,3.28c-6.06.7-10.09,4.38-14.16,8.45C150.91,202,140.73,201.45,133.44,193.76Z" transform="translate(-101.36 -102.01)" fill="#8ec641"/><path d="M120.07,180.24c-5.08-7.47-4.59-14.88,1.48-21,1.75-1.76,3.69-3.33,5.57-5,2.35-2.05,4.28-4.6,3.78-7.72-0.59-3.67,1.13-5.18,4.2-6.34,2.39,5.19,2.82,10.18-.84,15a78.81,78.81,0,0,1-5.59,7C121.46,169.61,121.21,170,120.07,180.24Z" transform="translate(-101.36 -102.01)" fill="#8ec641"/><path d="M186.38,126a14.27,14.27,0,0,1,3,2.9c3.22,5-1.15,8-3.53,11.06-1.84,2.4-4.84,3.9-7.53,6a22.75,22.75,0,0,1-3.78-2.28c-1.8-1.34-2.9-2.18-3.23-3.57a4.6,4.6,0,0,1,.52-3.13C175.34,130,182,124.06,186.38,126Z" transform="translate(-101.36 -102.01)" fill="#3ab54b"/><path d="M149.25,137.3c-6.81,0-11.51-2-15.16-5.76-5.13-5.32-9.51-11.43-16.49-14.76,8.52,0.34,16.08,2,20.42,10.41C140.14,131.32,144.17,134,149.25,137.3Z" transform="translate(-101.36 -102.01)" fill="#fff"/><path d="M149.8,114.76a18.32,18.32,0,0,1-11.12,10L134.37,119c2.1-3.44,4.41-6.66,8.4-8.51a3.83,3.83,0,0,1,2.85-.45,4.3,4.3,0,0,1,1.9,1.53A19.64,19.64,0,0,1,149.8,114.76Z" transform="translate(-101.36 -102.01)" fill="#0f8343"/><path d="M147,107.95a5.11,5.11,0,0,1,.77-4.19,5,5,0,0,1,3.37-1.67c3.7-.51,5.9,1.91,6.34,5.54,0.13,1,.32,3-1,4.33-1.58,1.62-4.32,1.17-5.82.53A6.32,6.32,0,0,1,147,107.95Z" transform="translate(-101.36 -102.01)" fill="#95979a"/><path d="M140.14,156c-0.33-8.55,3.17-13.44,8.51-12.22C147.18,148.95,141,150.65,140.14,156Z" transform="translate(-101.36 -102.01)" fill="#94c94b"/><path d="M161.16,174.46c4.7-1.28,6.92-6.37,11.61-7.8C174.13,172,169.56,175.09,161.16,174.46Z" transform="translate(-101.36 -102.01)" fill="#92c847"/></svg>