<svg xmlns="http://www.w3.org/2000/svg" viewBox="0 0 95.73 100.51"><title>warlock</title><path d="M143.36,200.95c-11-3.13-20.35-8.59-26.74-18.4-0.63-1-1.54-1.78-1.42-3.15,1.77-1.56,3.86-2.42,7.41-2.49l14.84,15.75c9.58,2.56,18-3.89,27.42.86l-11.5,7.43h-10Z" transform="translate(-103.66 -100.43)" fill="#6e3b6f"/><path d="M184.15,101.07a4.12,4.12,0,0,1,2.24,3.85,23.77,23.77,0,0,1-9.2,11.36l-9.85-7.07c3.73-3.7,8-5.76,12-8.26A5.28,5.28,0,0,1,184.15,101.07Z" transform="translate(-103.66 -100.43)" fill="#d1b5d7"/><path d="M169.49,130.32a5.57,5.57,0,0,1,2.88,2,5.47,5.47,0,0,1,1,2.44,5.57,5.57,0,0,0,.25,3.36c0.87,2,2.93,2.71,6.39,4,3.78,1.36,7.51,2.85,11.28,4.25,5.42,2,6.66,2.65,6.83,3.79,0.25,1.6-1.68,3.35-3.3,4.14a9.19,9.19,0,0,1-6.31.29c-5-1.19-9.72-3.63-14.68-2.5l-8-4.51a12.07,12.07,0,0,0-2.76-6.08c-0.36-2.29,1.82-2.72,2-5,0-.85-1.12-1.73-2.35-2.2-7.59-2.85-15-5.92-23.59-3.6-4.2,1.13-9,.48-13.44.16-8.39-.6-14.69-8-14-17.14a2.77,2.77,0,0,1,.82-2.29,2.65,2.65,0,0,1,2.64-.54,55.62,55.62,0,0,0,14.49,6.48c4,1.14,9.25,2.63,15.62,2,9.69-1,16.63-6.26,20-9.33l9.86,7.77c-1.34,3-4.43,3.77-6.19,6-1.3,1.63-1.78,2.7-1.58,3.83A4.29,4.29,0,0,0,169.49,130.32Z" transform="translate(-103.66 -100.43)" fill="#d0b5d6"/><path d="M150.06,164.36c-7-2-12,1.23-17.15,4.92-1.2-5.14.24-10.52-4.38-13.22-3.61.11-3.69,3-4.93,4.64a3.4,3.4,0,0,1-4.14-1.52c3.48-8.47,12.81-11.65,18.11-19.35,4,7.44,10.42,10.54,18.18,12.69C153.74,156.44,150.91,159.54,150.06,164.36Zm-7.87-3.06c0.39-2.47-.22-3.79-2.45-4.35-2.17.41-4.65,0.56-6.24,2.9,0.28,2.85,1.78,4.15,4.82,4.12Z" transform="translate(-103.66 -100.43)" fill="#d1b5d6"/><path d="M136.11,183.23c0.82-2.82-1.74-4.08-2.55-6.28a6.63,6.63,0,0,1,2.06-2.75,8.5,8.5,0,0,1,5.49-1.38c2.24,0,2.23.54,4.25,0.5a14.46,14.46,0,0,0,5.25-1.25c2.8-1.11,3.26-2,5.38-2.25A6.17,6.17,0,0,1,159,170c5.32,1.16,5.93.23,8.44,1.44a11.49,11.49,0,0,1,3.85,3.07c-0.81-.2-5.56-1.33-9.35,1.56a9.39,9.39,0,0,0-2.39,2.72c0.75,4,4,3,6.56,4-5.44,0-9.26,4.33-14.39,5C146.22,188.46,141.45,185.89,136.11,183.23Z" transform="translate(-103.66 -100.43)" fill="#6d3b6e"/><path d="M196.39,165.94c4.93,14.36-12.78,34.57-28.24,32.68-1.2-2.51-.45-4.71,1-6.67,2.71-2.07,6.46-.88,7.9-2.39,3.89-5-3.72-9.77,1.56-13.57,2.52-.08,3.3,2.66,5.47,2.6,6.52-.42,4.9-9.12,9.35-11.84a5.73,5.73,0,0,1,1.35-.58A5.9,5.9,0,0,1,196.39,165.94Z" transform="translate(-103.66 -100.43)" fill="#6d3b6e"/><path d="M153.85,148.75c7.5-1.85,13.32,1,19.08,5.33-0.16,6.25,6.56,8.85,8.49,14.61-2.27,3.44-5.09,3-7.85.87a17,17,0,0,1-4.87-5.58C165.37,157.43,161.48,151.4,153.85,148.75Z" transform="translate(-103.66 -100.43)" fill="#d1b5d7"/><path d="M162.78,145.78H149.11c-4.3-2.91-6-8-9.53-12.4,7.83-1.23,14.72-.59,21.25,4.05C159.83,140.06,160.4,142.68,162.78,145.78Z" transform="translate(-103.66 -100.43)" fill="#d1b5d6"/><path d="M106.74,160.63c-2.57-4.88-3.29-7.94-3-12.53,6.79-4.55,14.89-6.63,23.15-8.79C118.73,145,114.34,154.19,106.74,160.63Z" transform="translate(-103.66 -100.43)" fill="#a4d390"/><path d="M121.74,107c2.21-2.29,3.85-.75,5.37.4,6.51,5,13.54,5.57,21.17,3.06,4.53-1.49,9.22-2.49,14.6-3.91-10.66,10-25.53,12.28-35.86,5.88C124.85,111.09,122.47,109.79,121.74,107Z" transform="translate(-103.66 -100.43)" fill="#703e70"/><path d="M170.39,129.63a64.69,64.69,0,0,1,14.79-4,18.68,18.68,0,0,1,6.12,9.25,46.32,46.32,0,0,1-16.2,1,5,5,0,0,0-.31-2.19,6,6,0,0,0-1.81-2.34A10.72,10.72,0,0,0,170.39,129.63Z" transform="translate(-103.66 -100.43)" fill="#d1b5d7"/><path d="M130.12,169.45c-3.13,2.38-3.13,2.38-4.66,5.66-5.68-3-10.69-1.15-15.65,3.11-1-5.83,3.14-8,5.64-10.89C127.75,165.95,127.75,165.95,130.12,169.45Z" transform="translate(-103.66 -100.43)" fill="#a5d391"/><path d="M199.39,126.51a9.25,9.25,0,0,1-1.32,3.81,9.44,9.44,0,0,1-4.33,3.67,23.11,23.11,0,0,0-5.21-8.83,26.83,26.83,0,0,1,5.22-1.21c3.25-.42,4.11.09,4.52,0.44A3.55,3.55,0,0,1,199.39,126.51Z" transform="translate(-103.66 -100.43)" fill="#d1b6d7"/><path d="M148.61,165.28c3.66-.73,6.93-0.28,10,2.79a9.66,9.66,0,0,0-5.73,1.26,19.78,19.78,0,0,1-3.25,1.94,14,14,0,0,1-2.5.82,4.7,4.7,0,0,1-.75-2.74C146.51,167.8,147.53,166.55,148.61,165.28Z" transform="translate(-103.66 -100.43)" fill="#a6d391"/><path d="M174,186c-3.5-1.17-2.87-5.27-6.29-6.41-1.33.14-3.58,2.81-5.32-.86,1.81-3,4.43-3.49,7.41-1.9C173.28,178.7,174.44,181.78,174,186Z" transform="translate(-103.66 -100.43)" fill="#a9d596"/><path d="M108.79,171.06l-3.94-4.67c2.75-2.52,5.67-1.18,9.43-1.34Z" transform="translate(-103.66 -100.43)" fill="#764777"/><path d="M145,190.47l-4.57,1.35c-1.67-.4-2.5-1.5-3.09-3.14C140.49,185.5,142.36,190.27,145,190.47Z" transform="translate(-103.66 -100.43)" fill="#add79b"/><path d="M134.69,182.14c-4.23,1.41-5,0-5.64-3.06C132.53,179,132.89,180.88,134.69,182.14Z" transform="translate(-103.66 -100.43)" fill="#add79a"/><path d="M126.83,158c2,1.23,2,1.23,2.14,3.67C126.59,161.29,126.09,160.15,126.83,158Z" transform="translate(-103.66 -100.43)" fill="#abd698"/><path d="M160.8,166.19l-4-2.24C159.3,162.52,160.31,162.57,160.8,166.19Z" transform="translate(-103.66 -100.43)" fill="#7d507e"/><path d="M140.84,159.49c-1.78,1.94-2.59,4.22-5.47,1.82C136.69,159.65,137.85,158.57,140.84,159.49Z" transform="translate(-103.66 -100.43)" fill="#b1d9a0"/></svg>