<svg xmlns="http://www.w3.org/2000/svg" viewBox="0 0 85.13 100"><title>warrior</title><path d="M170.92,125.2c-3.14,4.51-5.72,8-9.61,14.14-0.73,1.15-2.58,4.21-5.34,8.38-1.88,2.85-3.55,5.25-5.9,8.66-4.81,7-12.42,8.63-18.16,4.16C151,144,161.35,121.15,175.36,100.95h4l5.23,3.19C178.92,113.46,174.22,120.46,170.92,125.2Z" transform="translate(-108.32 -100.94)" fill="#bcbdc0"/><path d="M132.36,200.95c-5.65-2.75-11.25-5.54-14.64-11.56l4.12-8c5.74,5.81,12.44,9.55,19.42,12.68-0.63,2.92-3.78,4-3.9,6.92h-5Z" transform="translate(-108.32 -100.94)" fill="#8b5f3d"/><path d="M164.26,104.36c0.28,5.76-3.9,9.13-6.84,12.79-7.06,8.81-14,17.57-18.83,27.92-3.46,7.42-9.34,8.51-15.72,3.5-3.88-3.05-7.68-6.33-8.34-12a39.89,39.89,0,0,1,4.31-1.33c7.82-1.48,14-5.53,19.22-11.47,6.28-7.13,14-12.63,21.43-18.5A4.45,4.45,0,0,1,164.26,104.36Z" transform="translate(-108.32 -100.94)" fill="#13a89e" opacity="0.5"/><path d="M193.45,124.68c-1.82,10.48-3.63,20.81-7.5,30.5-3.16,7.9-4.31,15.58-1.78,23.73a5.76,5.76,0,0,1,.12,2,11,11,0,0,1-.46,1.8c-7.64,1.15-13.71-2-19.19-6.63-0.67-4.18-1.26-8.12,1.52-11.31,8.11-9.31,12.69-20.59,18-31.48,1.09-2.24,2.2-4.48,3.46-6.62C188.77,124.71,190.22,123.09,193.45,124.68Z" transform="translate(-108.32 -100.94)" fill="#13a89e" opacity="0.5"/><path d="M171.86,125q6.35-10.67,12.73-20.87c2.52,1.57,5.21,2.93,6.91,6.19-11.35,21.8-29.39,40.43-34.12,65.91-2.3-.26-3.71-1.72-5.53-2.76l-2.48-8.87Q159.89,145.17,171.86,125Z" transform="translate(-108.32 -100.94)" fill="#fff"/><path d="M108.35,151.9c0.32-4-.84-7.86,1.34-11.75,6.5,10.72,15.36,18.81,25.43,25.21,2.25,12.3,2.25,12.3,14.9,9.31,10.34,5.3,19.5,14.19,32.59,14.28-4.07,4.71-9.65,6-15,4-19.28-7.37-36.73-17.63-51.68-32A82,82,0,0,1,108.35,151.9Z" transform="translate(-108.32 -100.94)" fill="#f9c940"/><path d="M146.5,187.84l-2.81,3.86a48.5,48.5,0,0,1-20.22-12.88,5.8,5.8,0,0,1,2.53-4.14A79.87,79.87,0,0,0,146.5,187.84Z" transform="translate(-108.32 -100.94)" fill="#8d613e"/><path d="M142.67,165.11c3.06,0.81,5,2.42,4.38,5.69a4,4,0,0,1-4.31,3.42c-2.22,0-4-.92-4.41-3.23C137.7,167.81,139.18,165.9,142.67,165.11Z" transform="translate(-108.32 -100.94)" fill="#ef453c"/></svg>