<svg xmlns="http://www.w3.org/2000/svg" viewBox="0 0 94.9 100"><path d="M58.89.99c3.76.36 5.63.54 7 .78a42.43 42.43 0 0 1 6.2 1.61c-7.62 5.3-14.61 10.18-16.91 19-6.51 2-11-3.74-17.41-4.07 1.58 5 1.61 9.62-3 13.05-2.46.24-4.44-1.71-7.71-2.26 1.77 7.45 4 14.45 4.9 22.56L11.35 65.29c6.39-11.16 4.55-21.66 3.8-32.22-.72-10.1 2-19.37 9.84-26.61 2.21 1.13 1.84 4 3.74 5.08C32.87 9.11 31.4 2.97 35.94.88c4.62-1.13 7.7 5.51 12.6 3.11.33-2.15-1.16-2.84-1.6-4l4.44.33h.4c.28.08 4.12.39 7.11.67z" fill="#d0d1d3"/><path d="M50.88 100.01a42.46 42.46 0 0 0-10-7.06c-2.06-1-3.76-2.23-2.93-5.34 4.27-3.13 8.93-1.78 13.41-.17 6.07 2.18 12.11 3.61 18.43 1.36 2.26-.81 4.43-1.89 7.22-3.09-.67 4.44-4.56 5.1-6.6 7.44l2.19 1.76c-6.41 1.46-12.51.88-18.58.95-1.08-.35-2.21-1.54-3.19.16.16 1.6 2.37 2.15 2 4h-2z" fill="#087e8f"/><path d="M31.67 83.52c4.28-6.53 7.52-13.51 12.57-19.45a112.48 112.48 0 0 1 21.78 5.89c.35-3.39-2-5.53-2.55-8.36l5.17-4.52 8.49 1.59c-1-6-5.7-10.87-3.84-17.68 8.25-2.67 13.73-8.92 18.59-17.5a95.66 95.66 0 0 1 2.78 29.88l-4.41 2.31c2.65 13.44-1.36 19.95-14.8 23.92-1.12-2.43 1.11-4.34 1-7.16-2.53 1.28-3.36 3.69-4.52 5.57-1.72 2.77-4.27 4.08-7.09 3.61-3.16-.52-6.35-.1-9.4-.73a36.66 36.66 0 0 0-23.77 2.63z" fill="#d0d1d3"/><path d="M38.85 55.94c-2.25-4.08-4.07-8.15-4.23-13.08-.12-3.76-3.16-6.78-5.16-10.9l6.71 4.43a24.75 24.75 0 0 1 6.51-7.5c.63-2.45-1.79-4-1.17-7.26 5.77 5.44 13.43 4.13 19.83 7.21l9.68-4.91.83.56-5.06 10c3.11 6.25 1 14.07 6.59 19.76-2.95 1.28-4.37-1-6.73-.93a26.18 26.18 0 0 1-7.66 6.79l3.4 5.37c-6.71-5.12-15.93-3.31-22.49-8.43zm27.31-12a14.26 14.26 0 1 0-28.5.13 14.25 14.25 0 1 0 28.5-.16z" fill="#e6a025"/><path d="M17.36 79.14l8.87-1.82-14.09 13.36c-2.35-1.05-5.07-4.43-7.29-8.09l13.34-12.83c1.79 2.66-1.85 5.58-.83 9.38z" fill="#818285"/><path d="M38.85 55.94l1 1.07-4.91 13.4-15.48 6 6.24-16.06z" fill="#e6a025"/><path d="M2.85 65.51C2.29 60.01.71 55.27 3.74 50L0 39c.43-1.76 1.85.48 2.41-.8a23.63 23.63 0 0 1 5.36-10.94c-.83 6.44.33 11.54 1.79 16.6 2.43 8.35-2.21 14.54-6.71 21.65z" fill="#097e8f"/><path d="M59.4 21.71l26.46-12-12.64 28.17c-2.12-8.69 4.17-13.7 4.93-20.44-6.25.94-11.53 6.4-18.31 5.6z" fill="#848587"/><path d="M53.98 54.72c-2.08-2.12-4.32-.87-6.34 0a8.24 8.24 0 0 1-6.41-6.28c-.33-2.18 3.28-4.56-.17-6.59 3.25-4.82 4.88-10.69 11.85-9.75 4.47.6 9.89 6.18 10.52 10.89.92 6.92-4.8 8.71-9.45 11.73zm-3.55-11a15.25 15.25 0 0 0-2.14-6.51c-1.24 1.77-3 3.18-2.13 5.79zm8.33 4a18.65 18.65 0 0 0-7.14-2.49c.86 2.05.12 3.91 2.36 5zM48.3 50.08c1.15-1 2-2.11.65-3.67a2.36 2.36 0 0 0-3.18 1.78c.59.72 1.02 1.79 2.52 1.8z" fill="#fff"/></svg>