<svg xmlns="http://www.w3.org/2000/svg" viewBox="0 0 96.91 100.12"><title>demon_hunter</title><path d="M142.61,197.15a35.18,35.18,0,0,0-7.31-.37c2.93-3.58,6.16-3.78,9.78-3.18,6.69,1.11,12.87.24,18.27-5.5-4.57.12-8.28,2.74-12.8,1.42,3.86-4.79,9-6.56,14.41-7.27,3.64-.48,5.92-2.09,6.8-5.53,1-3.9,3.67-6,7.08-7.78,11.28-5.92,14.5-9.27,20.46-19.62,0,4.78.26,9.58-.08,14.33-0.27,3.66-3.12,5.69-6.19,7.27-3.76,1.93-7.37,4.11-8.71,8.45a26.4,26.4,0,0,1-3.46,7.22C175.76,194,167.7,197.2,165,198.1c-3.56,1.2-7.89,2.65-13,1.59C148.94,199.06,147.13,197.86,142.61,197.15Z" transform="translate(-102.49 -99.94)" fill="#8dc53f"/><path d="M176.36,100.95c10.34,7.73,7.8,22,1,28.43-6.22,5.93-13.09,5.53-18.09-1.47-2.36-3.31-5.09-2.33-8-1.33-10,3.48-13.93,3.88-22.15,1.71,7.75-.58,13.43-3.57,19.34-6.11,6.88-3,14.09-.86,21.14.07,0.82,0.11,1.61.47,2.43,0.57,2.24,0.28,4.45.17,5.62-2.17,1.31-2.62-.23-4.59-2.09-6A23.58,23.58,0,0,0,162.12,110c-9.17-.52-17.9.87-25.71,6.15a21,21,0,0,1-3.58,1.71,3.87,3.87,0,0,1-1.37-.21c4.68-5.87,10.9-8.65,17.58-10.63,6.47-1.92,13.28-2.75,19.32-6A8.5,8.5,0,0,1,176.36,100.95Z" transform="translate(-102.49 -99.94)" fill="#8dc640"/><path d="M145.3,141.14c2.58-4.23,6-5.37,10.59-4.94-0.33,3.23-1.45,6.9,3.06,7.63,5,0.82,3.76-3.9,5-6.32,1.82-1,3.71-.68,5.47-0.5,6.92,0.71,10.87-3.19,13.74-8.67,2.43-4.65,2.73-9.83,3.23-14.93,0.16-1.59-.5-3.3.59-4.8,15.55,13.48,12.83,36.45-12,52.74-3-1-3.44-8-8.21-4-4.54,3.83.05,6.56,2.58,9.5-2.26,2.63-3.31,6.16-6.95,7.57-1.37-2.08-3.43-3.26-5.29-2.93-0.16,0-2.08.4-2.58,1.83-0.31.87,0.08,1.7,0.54,2.71a9.31,9.31,0,0,0,2.72,3.44,8.31,8.31,0,0,1-7.22,4.06,7.29,7.29,0,0,1-4.31-1.76c5.06-4.27,4.82-8.49.46-13.51-3.33-3.83-1.39-8.95,3.39-11.65S155.3,153,152,148.4C150.12,145.87,147.73,143.75,145.3,141.14Zm30.94,11.25a29.84,29.84,0,0,0,9.75-8.06,25.24,25.24,0,0,0,5.5-11.62,24.61,24.61,0,0,0-2.69-15.54,30.38,30.38,0,0,1,1.27,12.69C188.52,143.09,178.44,150.78,176.24,152.38Z" transform="translate(-102.49 -99.94)" fill="#e6e6e7"/><path d="M133.7,185.81c-3,4.42-6.66,4.5-10.59,3.88-1.14-2.22,3.36-4.5-.15-6.54-2.51-.09-2.09,2.78-3.82,3.65-6.47-.82-0.19-5.3-2.25-7.67-2.56-1.15-3.26,1.89-5,2.69-9.06-4.82-11.79-13.94-7.08-24.39,2,1.81,1.47,4.55,2.69,6.54,1.39,2.26,2.35,5,5.56,5.11s4.35-2.65,5.77-4.84a12.92,12.92,0,0,0,1.45-3.16c0.79-2.54,1.72-4.88,4.75-4.75,0.8-2.47-1.75-2.8-2.12-4.26,3.06-2.76,3.06-2.76,7.29-2.27C125,162.34,116.38,175.27,133.7,185.81Z" transform="translate(-102.49 -99.94)" fill="#818285"/><path d="M137.11,187c-1.42-1.69-2.7-3.44-4.21-5-7.72-7.84-8.16-9.95-3.91-20.15,1.15-2.75,2.31-5.5,3.53-8.22,4-8.86,10.29-9.67,16.75-1.83-3.52,2.29-7.35,4.47-7.89,9.22a19.44,19.44,0,0,0,2.79,12.39c1.75,2.92,1.3,5.21-1.18,7.47C141.18,182.55,140.39,185.16,137.11,187Zm-4.21-19.11c-4.09.54-3,3.61-2.46,5.6,0.62,2.3,2.63,3.17,5.16,2.23,4.3-1.61,3.9-5.12,3.8-8.67-0.08-3-.79-5.24-4.45-4.81-2,.24-1.07-2-2.29-2.61-0.42,2.38-1,4.36,2.35,5.4s1.77,4.07,1.19,6.26c-0.46,1.74-2.12,2.13-3.63,1.26C129.91,171,133,169.62,132.91,167.88Z" transform="translate(-102.49 -99.94)" fill="#bbbcbf"/><path d="M116.81,125.53c2.79,4.47,1.92,8.52-1,12.39-3.8,5-5.86,10.87-4.14,16.79,0.88,3,.56,5.45.44,8.2a0.75,0.75,0,0,1-.47.38,1,1,0,0,1-.76-0.4c-0.47-.51-11.17-12.71-0.72-23.38C114,135.57,117,131.38,116.81,125.53Z" transform="translate(-102.49 -99.94)" fill="#8fc643"/><path d="M149.05,133.91a44.72,44.72,0,0,1-10.86,7.17c-0.74.34-1.92,0.89-2.34,0.58-5.08-3.78-10.49-1.86-16.67-.33,2.7-3.84,5.6-5.47,9-5.46,12.74,0,14.23-1.38,15.63-1.9a7.45,7.45,0,0,1,2.16-.49A7.74,7.74,0,0,1,149.05,133.91Z" transform="translate(-102.49 -99.94)" fill="#90c745"/></svg>