<svg xmlns="http://www.w3.org/2000/svg" viewBox="0 0 96.91 100.12"><path d="M40.12 97.21a35.18 35.18 0 0 0-7.31-.37c2.93-3.58 6.16-3.78 9.78-3.18 6.69 1.11 12.87.24 18.27-5.5-4.57.12-8.28 2.74-12.8 1.42 3.86-4.79 9-6.56 14.41-7.27 3.64-.48 5.92-2.09 6.8-5.53 1-3.9 3.67-6 7.08-7.78 11.28-5.92 14.5-9.27 20.46-19.62 0 4.78.26 9.58-.08 14.33-.27 3.66-3.12 5.69-6.19 7.27-3.76 1.93-7.37 4.11-8.71 8.45a26.4 26.4 0 0 1-3.46 7.22c-5.1 7.41-13.16 10.61-15.86 11.51-3.56 1.2-7.89 2.65-13 1.59-3.06-.63-4.87-1.83-9.39-2.54z" fill="#8dc53f"/><path d="M73.87 1.01c10.34 7.73 7.8 22 1 28.43-6.22 5.93-13.09 5.53-18.09-1.47-2.36-3.31-5.09-2.33-8-1.33-10 3.48-13.93 3.88-22.15 1.71 7.75-.58 13.43-3.57 19.34-6.11 6.88-3 14.09-.86 21.14.07.82.11 1.61.47 2.43.57 2.24.28 4.45.17 5.62-2.17 1.31-2.62-.23-4.59-2.09-6a23.58 23.58 0 0 0-13.44-4.65c-9.17-.52-17.9.87-25.71 6.15a21 21 0 0 1-3.58 1.71 3.87 3.87 0 0 1-1.37-.21c4.68-5.87 10.9-8.65 17.58-10.63 6.47-1.92 13.28-2.75 19.32-6a8.5 8.5 0 0 1 8-.07z" fill="#8dc640"/><path d="M42.81 41.2c2.58-4.23 6-5.37 10.59-4.94-.33 3.23-1.45 6.9 3.06 7.63 5 .82 3.76-3.9 5-6.32 1.82-1 3.71-.68 5.47-.5 6.92.71 10.87-3.19 13.74-8.67 2.43-4.65 2.73-9.83 3.23-14.93.16-1.59-.5-3.3.59-4.8 15.55 13.48 12.83 36.45-12 52.74-3-1-3.44-8-8.21-4-4.54 3.83.05 6.56 2.58 9.5-2.26 2.63-3.31 6.16-6.95 7.57-1.37-2.08-3.43-3.26-5.29-2.93-.16 0-2.08.4-2.58 1.83-.31.87.08 1.7.54 2.71a9.31 9.31 0 0 0 2.72 3.44 8.31 8.31 0 0 1-7.22 4.06 7.29 7.29 0 0 1-4.31-1.76c5.06-4.27 4.82-8.49.46-13.51-3.33-3.83-1.39-8.95 3.39-11.65s5.19-3.61 1.89-8.21c-1.88-2.53-4.27-4.65-6.7-7.26zm30.94 11.25a29.84 29.84 0 0 0 9.75-8.06A25.24 25.24 0 0 0 89 32.77a24.61 24.61 0 0 0-2.69-15.54 30.38 30.38 0 0 1 1.27 12.69c-1.55 13.23-11.63 20.92-13.83 22.52z" fill="#e6e6e7"/><path d="M31.21 85.87c-3 4.42-6.66 4.5-10.59 3.88-1.14-2.22 3.36-4.5-.15-6.54-2.51-.09-2.09 2.78-3.82 3.65-6.47-.82-.19-5.3-2.25-7.67-2.56-1.15-3.26 1.89-5 2.69C.34 77.06-2.39 67.94 2.32 57.49c2 1.81 1.47 4.55 2.69 6.54 1.39 2.26 2.35 5 5.56 5.11s4.35-2.65 5.77-4.84a12.92 12.92 0 0 0 1.45-3.16c.79-2.54 1.72-4.88 4.75-4.75.8-2.47-1.75-2.8-2.12-4.26 3.06-2.76 3.06-2.76 7.29-2.27-5.2 12.54-13.82 25.47 3.5 36.01z" fill="#818285"/><path d="M34.62 87.06c-1.42-1.69-2.7-3.44-4.21-5-7.72-7.84-8.16-9.95-3.91-20.15 1.15-2.75 2.31-5.5 3.53-8.22 4-8.86 10.29-9.67 16.75-1.83-3.52 2.29-7.35 4.47-7.89 9.22a19.44 19.44 0 0 0 2.79 12.39c1.75 2.92 1.3 5.21-1.18 7.47-1.81 1.67-2.6 4.28-5.88 6.12zm-4.21-19.11c-4.09.54-3 3.61-2.46 5.6.62 2.3 2.63 3.17 5.16 2.23 4.3-1.61 3.9-5.12 3.8-8.67-.08-3-.79-5.24-4.45-4.81-2 .24-1.07-2-2.29-2.61-.42 2.38-1 4.36 2.35 5.4s1.77 4.07 1.19 6.26c-.46 1.74-2.12 2.13-3.63 1.26-2.66-1.55.43-2.93.34-4.67z" fill="#bbbcbf"/><path d="M14.32 25.59c2.79 4.47 1.92 8.52-1 12.39-3.8 5-5.86 10.87-4.14 16.79.88 3 .56 5.45.44 8.2a.75.75 0 0 1-.47.38 1 1 0 0 1-.76-.4c-.47-.51-11.17-12.71-.72-23.38 3.84-3.94 6.84-8.13 6.65-13.98z" fill="#8fc643"/><path d="M46.56 33.97a44.72 44.72 0 0 1-10.86 7.17c-.74.34-1.92.89-2.34.58-5.08-3.78-10.49-1.86-16.67-.33 2.7-3.84 5.6-5.47 9-5.46 12.74 0 14.23-1.38 15.63-1.9a7.45 7.45 0 0 1 2.16-.49 7.74 7.74 0 0 1 3.08.43z" fill="#90c745"/></svg>