<svg xmlns="http://www.w3.org/2000/svg" viewBox="0 0 98.97 85.2"><path d="M98.97 56.18c-2.47 5.36-4.28 11-7.23 16.17-4.13 7.28-9.88 11.24-18.13 12.18-9.52 1.09-18.94 1-28.24-1.36a15.55 15.55 0 0 1-9.78-6.74c2-2.83 5.15-3.31 8.18-4.5 4.56 2.83 8.53 6.83 14.36 7.34 13.81 1.21 22.29-3.76 27-17.62 2.48-7.33 7-11.37 13.91-13.49v8z" fill="#4a443f"/><path d="M98.97 40.18c-2.19 4-6.14 5.7-10.61 9.14.6-11.22 1.14-21.15.46-32.38 5.51 6.61 8 13.35 10.15 20.25v3z" fill="#766367"/><path d="M58.46 25.13c-1.11-4.81 2.75-8.55.44-13.44-4.57 3-4.58 10.85-11.76 10.17-2.35-1.6-1.9-6.06-6.63-6.7-.66 6.23 6.06 12.25.92 18.38-2.28-10.53-7.61-16.36-14.7-16.15-6 .18-7.71 3.16-9.16 15.94-5.78-8-2.64-19.69 6.82-25.38C33.22 2.64 43.07 1.16 53 .31a60.57 60.57 0 0 1 18.39.91c8.27 1.83 13.94 7.83 14.58 15.61.93 11.25-2.18 17.27-11 20.74 1.67-6 .55-11.64-1.12-17.24-1-3.3-3.07-5.66-6.64-5.86s-5.22 2.33-6.35 5.33c-.55 1.52-1.32 2.98-2.4 5.33z" fill="#a98487"/><path d="M57.16 45.53c5 16.18 5 16.18 10.16 16.47 4.65-4.71 5.95-11 7.38-17.78a12.49 12.49 0 0 1 6.25 9.25c1.33 7.2-1.15 13.16-6.74 17.66-5.27 4.25-11.21 6.48-18 4a11.85 11.85 0 0 1-8.26-11.25 12.94 12.94 0 0 0-.71-4.85c-3.23-7.3 1.3-13.54 9.92-13.5z" fill="#5d5752"/><path d="M23.14 23.33c2.9-3.06 6.23-2.9 8.86.66a14 14 0 0 1 2.56 10.37c-1.2 9-.88 17.84 3 26.28a6.35 6.35 0 0 1 .78 1.81c-.17.11-1.24-1.19-1.72-1.78a15.16 15.16 0 0 1-2.05-3.1c-.15-.3-.23-.55-.29-.64a73.7 73.7 0 0 1-9-22.71c-.87-3.6.41-7.62-2.14-10.89z" fill="#8a8ca0"/><path d="M56.61 40.86c-11.76 1.17-14.29 8.71-14 19.2-5.18-9.89-4.74-15.52 1-22.19a17.11 17.11 0 0 0 4.43-10.83 11.42 11.42 0 0 1 5.48-2.26c.18 5.45.27 10.86 3.09 16.08z" fill="#4c4641"/><path d="M41.35 66.59c-4.12 5.69-8.79 7.71-15 6.58-2-4.88-4.25-9.63-4.52-14.67 1.39-2 3.1-2.61 5.45-3.52 2.03 6.61 7.33 9.69 14.07 11.61z" fill="#4b4540"/><path d="M66.96 20.13a7.6 7.6 0 0 1 .22-.74.58.58 0 0 1 .22-.43.69.69 0 0 1 .45.37c4.07 6.08 3.53 14.78 3.53 14.78a96.4 96.4 0 0 0-5.66 22.21 6.9 6.9 0 0 1-.51-.82 8 8 0 0 1-.5-1.21c-.55-1.76-.51-7.53-.5-8.75v-2.92c0-1 .07-1.77.12-2.73.16-3.09.15-3.61.22-4.52.68-8.48 1.63-10.64 2.41-15.24z" fill="#8c8ea1"/><path d="M6.97 48.89c-4.88-8.32-3.61-14.56 3.44-19.76 2.19 3.22 3 7.22 6.75 10.86-6.61-.64-8.75 3.24-10.19 8.9z" fill="#ab8689"/><path d="M11.47 46.92a2.94 2.94 0 0 1-.46-1.28 2.36 2.36 0 0 1 .49-1.87 2.34 2.34 0 0 1 2.13-.39c2.35.49 4.3 2 4.34 4.66.06 3.38.06 6.18-.06 9.7a13.73 13.73 0 0 0 .12 3.37 28.77 28.77 0 0 0 1.38 3.91c-.07 0-.38-.26-1.47-1.81-.18-.28-.4-.64-.66-1.06-.12-.19-.37-.62-.75-1.28-.19-.34-.62-1.08-1-1.72a16.81 16.81 0 0 1-2.31-5.88c-.09-.43-.18-1-.4-1.88s-.45-1.66-.59-2.1c-.15-.66-.42-1.46-.76-2.37z" fill="#8a8c9f"/><path d="M23.14 23.33c2.55 3.28 1.27 7.29 2.1 10.9a73.7 73.7 0 0 0 9 22.71c0 .08.13.32.29.64a13.12 13.12 0 0 0 1.59 2.48c1.15 1.46 2.09 2.38 2.07 2.4s-2.13-2-3-2.91c-7.89-8.1-10.91-19.43-10.91-19.43a44.78 44.78 0 0 1-1.14-16.79z" fill="#fff" opacity=".8"/><path d="M8.1 58.33a11.21 11.21 0 0 0-5.86 4.73c-2.26-3.95-2.8-7.87-1.64-13 3.63 1.93 5.64 4.54 7.5 8.27z" fill="#ab8689"/><path d="M5.11 64.23c2.61-3 5.46-2.76 6.75.79a86.39 86.39 0 0 1 2.32 9.22 3.63 3.63 0 0 0 .5 1c.33.46.62.66.59.7a6.31 6.31 0 0 1-2.09-1.33 9.11 9.11 0 0 1-1.84-2.2 29.39 29.39 0 0 0-6.23-8.18z" fill="#8c8ea0"/><path d="M83.71 47.98l-5.1-6.66 5.51-4.54c1.42 3.68.99 7.11-.41 11.2z" fill="#534d48"/><path d="M5.11 64.23a30 30 0 0 1 2.61 2.73c.37.43 1 1.2 1.69 2.2.28.41.68 1 1.15 1.78.64 1.08.61 1.22 1.07 1.88a9.48 9.48 0 0 0 3.36 3 15.83 15.83 0 0 1-8.58-7.44 14 14 0 0 1-1.3-4.15zM16.39 60.59c-1.33-2.41-1.55-2.77-1.7-3.08l-.08-.16a15.52 15.52 0 0 1-1.15-3.09c-.1-.42 0-.23-.24-1.29-.12-.58-.26-1.25-.43-1.92s-.26-1-.38-1.34a22.56 22.56 0 0 0-.92-2.75 3.25 3.25 0 0 1-.46-1.23 7.43 7.43 0 0 0-.06-.93.59.59 0 0 0-.14.28 2 2 0 0 0-.09.4 20.3 20.3 0 0 0 1.06 8.94 24.78 24.78 0 0 0 2.6 5.8 20.2 20.2 0 0 0 3 3.62 6.11 6.11 0 0 0 1 .74 5.34 5.34 0 0 0 1 .46 1.3 1.3 0 0 1-.15-.11l-.11-.11-.21-.25-.58-.76c-.46-.65-.91-1.38-1-1.46-.45-.84-.81-1.49-.96-1.76zM64.24 45.13c.1-4.89.16-8.2.63-12.58.16-1.56.41-3.9.87-6.15.08-.41.28-1.31.57-2.79.15-.78.34-1.55.47-2.33a11.92 11.92 0 0 1 .35-1.68 3.47 3.47 0 0 0 .19-.64 36.8 36.8 0 0 0-2.47 4.22 33.55 33.55 0 0 0-3.42 13 36.91 36.91 0 0 0 1.7 13.93s.14.41.3.94.16.57.23.83c.17.61.34 1.06.53 1.58a13.41 13.41 0 0 0 .62 1.53 5.21 5.21 0 0 0 .92 1.32 6.51 6.51 0 0 1-.71-1.25 7.14 7.14 0 0 1-.41-1.36c-.06-.31-.09-.57-.15-1.07s-.09-.91-.09-1c-.11-1.5-.13-3.17-.13-3.17-.03-2 0-3.33 0-3.33z" fill="#fff" opacity=".8"/></svg>