<svg xmlns="http://www.w3.org/2000/svg" viewBox="0 0 98.02 97.44"><path d="M61.53 38.66l2.58-5.29-8 3.13c-4.12 1.61-5.21 2-6.31 3.31-.89 1-1.07 1.77-2.62 5.81-.92 2.39-1.69 4.29-2.16 5.44l-1.14-.84-.86-13.57 20-28.15c5.19-1.64 10.73-3.21 16.62-4.66C86.07 2.26 92.22 1 98.02-.01c-1 .75-1.84 1.37-2.29 1.74-10.49 8.41-18.89 18.19-20.83 28.8a5.12 5.12 0 0 1-.73 1.47c-1.66 1.26-3.12-.69-4.83.51-2.11 2.27-2.37 7.51-7.81 6.15z" fill="#bf1e2e"/><path d="M61.53 38.66c5.44 1.36 5.7-3.88 7.81-6.14 1.71-1.2 3.17.76 4.83-.51a5.12 5.12 0 0 0 .73-1.47c2-10.74 10.38-20.47 20.83-28.8.45-.36 1.23-1 2.25-1.7-.12.48-.31 1.22-.54 2.13-1.48 5.7-1.95 6.81-2.81 10.21-1.15 4.49-1.27 7.12-3.54 14.72-.57 1.9-1 3.86-1.49 6.06-6.19 4.51-11 8.15-14.24 10.66-3.06 2.36-6.37 4.38-9.37 6.81-3.49 2.83-4.92 4.35-7.62 4.63-1.81.18-3.62-.25-6.75-1-1.88-.45-3.41-.93-4.48-1.3a17.53 17.53 0 0 0 5.85-2.38c4.2-2.75 6.56-7.15 8.54-11.92z" fill="#8f191e"/><path d="M89.82 42.73c-.64 18.21-7.19 31.52-20.1 34.57-4 .94-7 4.13-8.69 7.82-2.9 6.24-7.37 9.62-14.34 9.52a57.62 57.62 0 0 0-17.73 2.81c5.26-6.68 9.32-12.82 16.51-15.82a14.77 14.77 0 0 0 4.24-2.6 61.84 61.84 0 0 1 23.56-13.44c6.38-2 10-7.49 12.64-13.43 1.21-2.71 2.28-5.48 3.91-9.43zM0 71.72c2-6.31 1.15-12.73 1.56-18.95.32-4.92 2-8.43 6.06-10.65 5.76-3.19 9.65-7.86 11-14.12 2.07-9.44 14.69-17.29 28.59-17.89 1.83-.26 2.23-.2 2.26-.1s-.83.46-2.87 1.31c-.89.37-1.76.76-2.65 1.12a30.74 30.74 0 0 0-13.2 10.78 26.63 26.63 0 0 0-3.71 9.41 3.81 3.81 0 0 1-.19 1C19.75 47.55 13.02 61.76 0 71.72z" fill="#bf1e2e" opacity=".5"/><path d="M33.79 62.93c-.25-1.94-.71-5.46-1.31-10.06-.34-2.63-.7-5.44-1-9.12-.29-3.52-.42-5.3-.19-6.56.46-2.46 1.3-3 4.37-8.12 3.81-6.36 3.7-7.52 5.94-9.06 1.09-.75 2.8-1.36 6.25-2.5 2.77-.91 5.1-1.58 6.74-2a152.39 152.39 0 0 1-11.43 16.78 14.81 14.81 0 0 0-3.25 6.06c-.54 2.22-.29 3.8.19 8.06.23 2.07.57 5.29.92 9.36a25.31 25.31 0 0 1-7.23 7.16z" fill="#fabd59"/><path d="M33.79 62.93a25.31 25.31 0 0 0 7.24-7.2l18.66 2.2 10.54-7.47c2.82-2.27 5.24-4.17 7.13-5.62 2.93-2.26 4.3-3.27 4.74-2.91s-.44 2.15-1.3 4l-5.06 10.81c-4.71 2.91-8.74 5.35-11.87 7.29a14.19 14.19 0 0 1-4.17 1.79 13.52 13.52 0 0 1-5.17.13c-4.91-.59-15.69-2.33-20.74-3.02z" fill="#e7a229"/><path d="M26.04 72.62c-3.19-6.75-1.1-14.21-3.35-21l6.54-6.7 2.17 21.45c-2.06 1.87-4.7 3.21-5.36 6.25z" fill="#fabd59"/><path d="M26.04 72.62c.66-3 3.3-4.38 5.36-6.22l20.22 2.37c-1.4 2.68-3.39 4.11-5.29 5.91z" fill="#e8a531"/><path d="M16.93 63.93a47 47 0 0 0 1.39 11.33c1 1.15 2.49-.43 3.87.69v3.57l12.33 1.41c-6.28 2.66-12.53 1.52-18.81 1.4V63.98zM17.9 92.29c-2.84 4-3 4-15.87 3.37.76-5.29-1.84-11 3.56-16.86v13.52c4.03 1 7.97-.65 12.31-.03z" fill="#4151a0"/><path d="M10.09 89.54c-2.62.38-2.07-1.6-2-2.92.21-4 .6-7.92 1-12.58l3.52-2.7c.85 4.7.26 9.22.36 13.69-.75 1.64-3.05 2.29-2.88 4.51z" fill="#f7c065"/><path d="M10.09 89.54c-.18-2.22 2.13-2.86 2.85-4.51h12.8c-1.61 4.74-1.5 3.58-15.65 4.51z" fill="#e7a229"/><path d="M59.49 38.07l-3.55 7.5a41.93 41.93 0 0 1-3.78 1.93c-1.34.6-2.61 1.09-3.78 1.48.61-1.73 1.21-3.12 1.66-4.11 1.13-2.46 1.61-3 1.87-3.25.49-.48 1-.82 3.44-1.87 1.04-.45 2.44-1.03 4.14-1.68z" fill="#e8a531"/><path d="M21.62 59.29l1 10.64c-.92 1.4-2 1-3.28.44.04-3.82-1.72-7.86 2.28-11.08z" fill="#f7c065"/><path d="M27.02 75.34l12 .87a5.69 5.69 0 0 1-2.39 2.34c-.7.34-1 .28-4.5.38-2.68.07-3.47.13-4.11-.5a4.14 4.14 0 0 1-.86-1.56 4.34 4.34 0 0 1-.14-1.53z" fill="#e8a531"/></svg>