<svg xmlns="http://www.w3.org/2000/svg" viewBox="0 0 96.93 97.07"><title>monk</title><path d="M101.67,190.45c0.76-.86,1.62-1.77,2.59-2.69s2-1.78,2.89-2.51a16.1,16.1,0,0,1,5.48,7.51c-3,7-5.82,7-11.27.19a2.36,2.36,0,0,1-.19-1.47A2.32,2.32,0,0,1,101.67,190.45Z" transform="translate(-101.13 -100.94)" fill="#966329"/><path d="M143.36,100.95c3.63,4.45,4.88,9.63,4.46,15.49-1.25,1-2.45.28-3.81-1a16.82,16.82,0,0,0-2.46-8.94l0.81-5.58h1Z" transform="translate(-101.13 -100.94)" fill="#70c057"/><path d="M155.34,190c-10.88-1.33-15.93-14.2-13.06-21.75,5.44-14.31,24.44-21.25,37.32-13.15,9.7,6.11,10.66,21,1.72,26.86,0.15-8.05-3-12-10.28-11.81A22.56,22.56,0,0,0,160.13,173C153.73,176.76,149.24,182.81,155.34,190Z" transform="translate(-101.13 -100.94)" fill="#e7e7e8"/><path d="M155.34,190c-6.1-7.14-1.61-13.2,4.79-16.92A22.56,22.56,0,0,1,171,170.11c7.23-.16,10.43,3.76,10.28,11.81C174.43,190.32,165.74,192.9,155.34,190Z" transform="translate(-101.13 -100.94)" fill="#bcbdc0"/><path d="M170.9,142.89A46.49,46.49,0,0,0,147.11,148c-6.5-8,1.58-12.36,4-17.59-0.19-2.16-2.52-2.64-2.5-4.5,4-4.13,7.5-4.82,12.4-2.33l-1.39,4.63C164.76,131.87,173,133,170.9,142.89Z" transform="translate(-101.13 -100.94)" fill="#bcbdc0"/><path d="M169.78,114.09a15,15,0,0,1,9.17,3.68c0.93,2.18-2.22,3-1.32,5.23,1.78,1.27,3.06-1.38,5.06-.89,1.48,0.76,2,2.2,1.77,4.3-3.64,1.94-7.62,3.65-10.77,7l-7.36-6.64Z" transform="translate(-101.13 -100.94)" fill="#966329"/><path d="M130.71,175.27a36.73,36.73,0,0,1-6.61-6.95c1.6-3,4.58-4.74,6.63-7.26s3.78-5,6.16-8.22l5,7.52C138.8,165.75,138,172.54,130.71,175.27Z" transform="translate(-101.13 -100.94)" fill="#966329"/><path d="M144.41,134.24c-2.61-.27-2.61-2.19-3.2-3.65A41.78,41.78,0,0,0,136,120.45c-3.87-5.07-8.39-5-12.24,0-0.87,1.14-1.18,2.76-2.55,3.34-1.39-.3-1.92-1.05-1.75-2.2,0.64-4.23,7.4-9.05,11.67-8.35C137.62,114.29,145.88,127.14,144.41,134.24Z" transform="translate(-101.13 -100.94)" fill="#b62025"/><path d="M176.32,148.75c-11.86-1.64-22.59,1.11-33.13,9.24C146.91,148.25,169.57,142.61,176.32,148.75Z" transform="translate(-101.13 -100.94)" fill="#b62025"/><path d="M114.25,170.66c7.45-3.15,16.82,6.35,16.58,15.88-4.17-2.11-4-6.69-6.42-9.36C121.82,174.32,118.42,172.82,114.25,170.66Z" transform="translate(-101.13 -100.94)" fill="#b62025"/><path d="M110.14,175.43c3.54-2.92,5.95-.29,8.06,1.19,4.84,3.4,7.63,8.13,7.61,14.25-3.74-1.82-3.91-6-6.21-8.82C117.1,179,113.27,178.09,110.14,175.43Z" transform="translate(-101.13 -100.94)" fill="#b62025"/><path d="M163.9,118.18c-5.54-1.06-6.7-4.1-6.46-7.8,0.28-4.27,3.29-5.77,10.64-5.26C163.1,108.1,160.1,111.6,163.9,118.18Z" transform="translate(-101.13 -100.94)" fill="#70c057"/><path d="M106,180.05c8.05-.29,15.14,8,13,15.63C116.1,188.58,112.28,183.25,106,180.05Z" transform="translate(-101.13 -100.94)" fill="#b62025"/><path d="M180,143.91c6.24,2.58,12-1.87,18.09.47-0.87,2.29-3,2.85-5,3.23-3.67.71-7.36-1.11-11.19,0C180.49,148.06,179.48,146.36,180,143.91Z" transform="translate(-101.13 -100.94)" fill="#70c057"/><path d="M178.51,137.2c6.54-.39,8.38-8.71,15.11-5.56C190.4,137.25,185,139.72,178.51,137.2Z" transform="translate(-101.13 -100.94)" fill="#70c057"/><path d="M130.47,139a3.79,3.79,0,0,1-4.13,3.76,3.84,3.84,0,0,1-3.94-4.26,3.77,3.77,0,0,1,4.16-4C129,134.54,130.5,136,130.47,139Z" transform="translate(-101.13 -100.94)" fill="#70c057"/><path d="M125.18,129.32c-0.65,2.92-2.33,4.34-5.34,3.72-2.13-.44-2.93-2.09-2.9-4a3.76,3.76,0,0,1,3.25-3.83C123.32,124.63,124.64,126.6,125.18,129.32Z" transform="translate(-101.13 -100.94)" fill="#70c057"/><path d="M131.11,142.6c3.37,2,6.31,3.86,7.84,8C133.83,149.91,130.72,146.73,131.11,142.6Z" transform="translate(-101.13 -100.94)" fill="#b62025"/></svg>