<svg xmlns="http://www.w3.org/2000/svg" viewBox="0 0 100 85.19"><title>priest</title><path d="M201.36,152.95l-8.2,11.5c-1.79-1.38-2.5-3.52-1.6-5.09a141.16,141.16,0,0,1,8-11.77c0.15-.21,1.18.23,1.8,0.36v5Z" transform="translate(-101.36 -107.84)" fill="#a7a9ac"/><path d="M101.36,143.95c2.59,0.37,5.19.69,7.77,1.14a2.55,2.55,0,0,1,2.15,2.87c0,1.52-1.05,1.69-2.24,2.07-3.08,1-6,2-7.68-2.08v-4Z" transform="translate(-101.36 -107.84)" fill="#a7a9ac"/><path d="M172.05,162.65l-33.66,13.48c-1.87-3.07-1.11-4.86,1.74-6.09,8.54-3.67,17.09-7.32,25.59-11.09C169.33,157.36,171.43,158.14,172.05,162.65Z" transform="translate(-101.36 -107.84)" fill="#a7a9ac"/><path d="M187.16,154.76l-12.63-4.16c4-9.79,11.54-11.44,21.27-9.24Z" transform="translate(-101.36 -107.84)" fill="#fff"/><path d="M112.24,193a8.09,8.09,0,0,1-5.19-3.09c-1.28-1.83,0-3.1,1-4.39,2.69-3.37,5.42-6.7,8.07-10.1,1.47-1.88,3.36-2.32,5.25-1.15s2.94,3.4,1.8,5.18c-2.84,4.45-6.17,8.59-9.37,12.8A3.77,3.77,0,0,1,112.24,193Z" transform="translate(-101.36 -107.84)" fill="#fff"/><path d="M176.75,135.64c-10.25.4-10.25,0.4-13.46-8.93a24.5,24.5,0,0,1,5.77-5.06Z" transform="translate(-101.36 -107.84)" fill="#fff"/><path d="M177.89,140.4l-8.12,9.38a22.9,22.9,0,0,1-8.08-3.5C165.81,138.07,166.24,137.91,177.89,140.4Z" transform="translate(-101.36 -107.84)" fill="#6fcbd5"/><path d="M130.92,181.77c-1.92-1-1.74-2.67-2.15-4-2-6.69-5.9-9.28-13-8.32-1.7.23-3.73,0.88-4-1.38s2.07-2.09,3.67-2.24c10.35-1,16.28,3.31,17.23,12.47C132.9,179.88,133.1,181.24,130.92,181.77Z" transform="translate(-101.36 -107.84)" fill="#6dcbd4"/><path d="M165.66,152.68l-16.79,7.26-3.08-5.28C152.43,152.75,157.8,145.78,165.66,152.68Z" transform="translate(-101.36 -107.84)" fill="#fff"/><path d="M149.8,119.69c-1.6,7.49-17.28,14.51-23.57,10.79Z" transform="translate(-101.36 -107.84)" fill="#fff"/><path d="M175.76,109c-7.19,6-7.19,6-16.21,4.53-0.47-2.06.91-3.58,1.59-5.68Z" transform="translate(-101.36 -107.84)" fill="#fff"/><path d="M135.34,157.36c-0.85,2.24-1.59,4.24-2.4,6.22a5.13,5.13,0,0,1-1.07,1.18c-1.49-.72-2.95-1.47-4.44-2.13s-3-1.25-4.59-1.88C127.62,154.33,128.67,154,135.34,157.36Z" transform="translate(-101.36 -107.84)" fill="#6dcbd4"/><path d="M153.37,123.25c1.94-7.26,1.94-7.26,13.17-4.91C162,124.55,160.62,125.07,153.37,123.25Z" transform="translate(-101.36 -107.84)" fill="#6ecbd4"/><path d="M111.25,128.95l4.89,2.17c-4.52,8.79-5.27,9.23-13,7.27Z" transform="translate(-101.36 -107.84)" fill="#fff"/><path d="M115.78,139.69c4.16-7.11,4.16-7.11,12-4.23C125.63,140.88,125.59,140.89,115.78,139.69Z" transform="translate(-101.36 -107.84)" fill="#71ccd5"/><path d="M113.62,142.93l10.65,1.15c0,5.72-5.22,4.07-7.71,6.31C114.78,148.07,114.43,145.63,113.62,142.93Z" transform="translate(-101.36 -107.84)" fill="#fff"/><path d="M117,153.24c3.39-.54,5.81-3.39,10.07-1.51l-8,7.57Z" transform="translate(-101.36 -107.84)" fill="#fff"/><path d="M185.64,166.88c-3.31-2.14-7.31-3.19-8.25-7.8C184.16,159.25,186.4,161.29,185.64,166.88Z" transform="translate(-101.36 -107.84)" fill="#a7a9ac"/><path d="M174.44,117.8c2.22-2.14,4.35-4.29,7.57-5.36,0.4,2.52,1.35,5.09-1.53,6.24C178.66,119.41,176.22,121.4,174.44,117.8Z" transform="translate(-101.36 -107.84)" fill="#a7a9ac"/><path d="M140.46,142.4c2-4,5.41-4.53,9.42-4.52C148.29,142.8,144.37,144.61,140.46,142.4Z" transform="translate(-101.36 -107.84)" fill="#71ccd5"/><path d="M145.55,161.65l-9.23,4.08c2.17-3.9,2.48-7.22,5.52-9.06C144.11,157.68,144.52,159.67,145.55,161.65Z" transform="translate(-101.36 -107.84)" fill="#fff"/><path d="M138,144.19l-8.2,5.58c-1.64-1.57-1.49-3.48-2.13-5.58H138Z" transform="translate(-101.36 -107.84)" fill="#fff"/><path d="M142.7,152.05c2.45-6.06,5.73-7.49,11.73-5.58C151,149.06,147.09,150,142.7,152.05Z" transform="translate(-101.36 -107.84)" fill="#fff"/><path d="M146.18,129.16c-0.35,6.25-2.68,7.48-9,5C139.82,131.9,143,130.93,146.18,129.16Z" transform="translate(-101.36 -107.84)" fill="#fff"/><path d="M162.53,134.91A34,34,0,0,1,152.6,137l8-6.39A6.22,6.22,0,0,1,162.53,134.91Z" transform="translate(-101.36 -107.84)" fill="#fff"/><path d="M157.82,127.77l-8.3,7c0.64-3.33.86-5.54,2.31-7.63Z" transform="translate(-101.36 -107.84)" fill="#fff"/><path d="M132.74,152.14l6.94-5.49C138.74,149.93,139.38,155.16,132.74,152.14Z" transform="translate(-101.36 -107.84)" fill="#fff"/><path d="M137.13,139.81l-7.28.43c2.1-5.56,4.9-2,7.28-2v1.58Z" transform="translate(-101.36 -107.84)" fill="#fff"/><path d="M152.88,141.59c2.7-1.26,4.82-2,7.36-1.63C159,144.5,156.54,143.9,152.88,141.59Z" transform="translate(-101.36 -107.84)" fill="#fff"/></svg>