<svg xmlns="http://www.w3.org/2000/svg" viewBox="0 0 100.08 97.13"><title>shaman</title><path d="M188,433.22l-21.42-10.84v17.75l-7.3-5.53-16.43,20.5-5.46-29.57-15.12,6.18,6.81-14.5c-5-1.57-9.9-1.09-15.29-1.62l-1.57-29.84L162.18,373l37.57,37.74Zm7.52-21.95L161,376.92l-45,11.51c0.64,8.19-.23,16,1.46,24l17.15,1-5.07,11.41,10.47-4.2,4.85,26.22,13.55-16.76c2.27-.23,2.77,2.44,5.21,1.73v-15l22.91,11.64Z" transform="translate(-101.28 -373.01)" fill="#faca3f"/><path d="M131.68,433.71c-5.58.1-9.61,5.13-15.66,3.45,5.46,5.26-1.87,12.54,3.55,18.4,2.83-5.38-2.57-11,2.39-15.42,4.45-1.3,7.89-.17,9.56,4.76,0,5.31.06,10.61-1,15.88-0.46,2.27-1.18,5.45,3,5.59,1.68-2,.69-3.92.41-5.84-0.41-2.8-2-5.73.39-8.42,0.08,1.09.27,2,2.3,1.37C135.89,446.76,134.76,440.11,131.68,433.71Z" transform="translate(-101.28 -373.01)" fill="#b62025"/><path d="M117.24,423.06c-2.65-.52-5.53.35-7.75-2.11-1.47-7.38-1.9-15.07-2.4-22.85a17.87,17.87,0,0,0-3.14,2.33,7.44,7.44,0,0,0-2.39,3.14,5.67,5.67,0,0,0-.28,2,1.77,1.77,0,0,0,.58,1.19c0.69,0.54,1.45,0,2.27.42a2.5,2.5,0,0,1,1.19,1.85,33.21,33.21,0,0,0,4.17,17.82c1.28,4.87-3.29,10.34.61,14.93l1.72-.09-0.62-11.91,2.71-1.5c1.11-1.32-.7-2.14-0.37-3.06C114.58,424,116.46,424.62,117.24,423.06Z" transform="translate(-101.28 -373.01)" fill="#b62025"/><path d="M190.37,440c-5.21-1.29-7.71-6.52-12.71-7.16-6.9,1.83-4.23,9.12-7.39,13-2.67-.64-4.22-3.08-7.25-3.38-7.81,3.84-9.86,12.75-15.76,18.92,3.36,2-.93,6.66,4,8.73-1.24-4.89-1.57-9.21,2.71-12.44,1.48,1.79-.21,4.33,2.81,5.14,1.55-3.57-1.12-7.07-.15-10.56,1.37-4.9,5.68-4.17,8.82-5.3,5.82,3.12,5.77,7.87,4.52,13.1-1.19,5-1,5.39,2.44,6.86,1.58-1.1,1-2.69.73-4.07-1.55-6.69-.19-13.26.71-19.84,0.33-2.4.65-5.12,4.13-5.8,4.48,1.45,5.4,5.6,6.54,9.59l0,9.07c0.3,2.92-2.73,6.4,0,8.91l1.66-.23V454l0-7.16c0.48-1.44,1.3-2.28,2.87-1.71,1.59,1.6-1.54,5.38,2.78,5.74,1.19-2.18-.55-4.66,1-6.79,0.64-.58,2,0.41,2.55-1.16,0.19-4.93-1.18-11,6-13v-7C196.39,427.75,195.64,435.44,190.37,440Z" transform="translate(-101.28 -373.01)" fill="#b62025"/><path d="M148.65,392.18l-4.12-3.54q0.7-1.12,1.4-2.29t1.48-2.51L160,380.76A4.51,4.51,0,0,1,163.7,384l-19.36,33.75c-3-2.09-5.27,1.32-8.65,1l3.82-8.55-6.07-.58c0.43-2.77,1.41-5,3.84-6.45l6.66,5,9.8-12.17Z" transform="translate(-101.28 -373.01)" fill="#b62025"/><path d="M183.58,422.7l-11.41-5.2,8.63-15.07,10,9.31Z" transform="translate(-101.28 -373.01)" fill="#b62025"/><path d="M134.07,400.87c-0.5,1.25-1.11,2.6-1.85,4a44.41,44.41,0,0,1-2.29,3.89,26.47,26.47,0,0,1-10.19-.77c1.06-7.73,6.95-13,9.59-19.95l8.22-2.14-9.24,10.69c0.63,0.57,1.32,1.14,2.06,1.72A38.29,38.29,0,0,0,134.07,400.87Z" transform="translate(-101.28 -373.01)" fill="#b62025"/><path d="M130.72,396.91l9-9.76a53.44,53.44,0,0,1,11.33,9.35l-7.68,9.35A73,73,0,0,1,130.72,396.91Zm17.52-.66-7.47-5.92-6.87,6.42a5.24,5.24,0,0,0,2.84,1.88c2.36-.12,2.82-3.4,5.33-2.34,1.34,2.29-1.63,3.09-1.54,4.86a2.61,2.61,0,0,0,2.69,1.51C144.81,400.87,146.84,399.16,148.24,396.24Z" transform="translate(-101.28 -373.01)" fill="#faca3f"/><path d="M173.24,394.7a41,41,0,0,1,2.06,9.53c-2.41.83-4.95,1.78-7.57,2.87-2.25.94-4.38,1.9-6.38,2.87a33.91,33.91,0,0,1-3-10.9q3.49-1.15,7.22-2.25Q169.48,395.67,173.24,394.7ZM165,402.58a1,1,0,0,1,.63.13c0.46,0.29.37,0.88,0.78,1.44a2,2,0,0,0,1,.69,9.63,9.63,0,0,0,5.68-2.45L171.67,397l-10,3.28a14.15,14.15,0,0,0,1.19,6.2,1.78,1.78,0,0,0,1.38-.41,2.11,2.11,0,0,0,.47-1.47,3.74,3.74,0,0,1,0-1.69A1.38,1.38,0,0,1,165,402.58Z" transform="translate(-101.28 -373.01)" fill="#faca3f"/><path d="M174.41,406.74a63.65,63.65,0,0,0-6.59,1.83c-2.21.75-3.31,1.12-3.61,1.24-1.34.56-2.77,0.85-4.14,1.33a1.92,1.92,0,0,1-1,.09,1.78,1.78,0,0,1-.68-0.31c0.18-2.94-.7-5.68-1.44-9.42l-12.51,21.8,3,15.56,9.21-13.24a1.47,1.47,0,0,1,.84-0.62,3.6,3.6,0,0,1,1.66.44,5.57,5.57,0,0,0,1.49.23V412l9.21,4.36C171.14,412.7,173.94,410.34,174.41,406.74Z" transform="translate(-101.28 -373.01)" fill="#b62025"/><path d="M162.21,396.58l-2.6.28,6.28-11c2.45,2.43,5.1,4.12,6.46,7.06Z" transform="translate(-101.28 -373.01)" fill="#b62025"/><path d="M119.48,400.07l-0.65-9.66,7.28-1.88Z" transform="translate(-101.28 -373.01)" fill="#b62025"/><path d="M175.78,396.58a5.63,5.63,0,0,1,3.53,3l-1.47,2.36C175.66,400.47,176.75,398.16,175.78,396.58Z" transform="translate(-101.28 -373.01)" fill="#b62025"/><path d="M140.63,385.41c1-.6,1.75-0.86,2.68-0.07C142.72,386.8,142.06,387.21,140.63,385.41Z" transform="translate(-101.28 -373.01)" fill="#b62025"/></svg>