<svg xmlns="http://www.w3.org/2000/svg" viewBox="0 0 92.41 99.41"><path d="M79.27.01l13.14 50.45-33.25 3.85L46.88 5.06zm1.84 28.63c2.22-8.82-5.08-12.19-12-11.31-5.56.71-9.17 4.89-8.74 9.72s3.7 7 9.56 7.29c4.89.28 8.38-1.57 11.18-5.71z" fill="#e6e6e7"/><path d="M11.66 55.78c2.18-6.14 8.56-8.68 8.73-15.77C13.72 45.68 7.72 50.9.3 54.01a2 2 0 0 1-.28-.84c7.42-9.33 12.3-19.94 16.65-31 3.74-9.49 11.11-15.77 21-19.05 1.47 3.7-.56 5.79-2.65 7.69-6.35 5.76-7.47 12.51-4.39 20.35 2.85 7.26 1.86 10.37-4.52 14.87-4.43 3.18-9.08 6.13-14.45 9.75z" fill="#eed566"/><path d="M45.96 69.96c-4-17-7.72-33-11.51-48.9-.58-2.44.68-4.14 1.94-5.9 1.89-2.64 3.8-5.26 6.38-8.85L55.3 58.48z" fill="#bcac76"/><path d="M39.67 91.39c5.26-14.74 17.4-17.58 30.23-19 3.91-.45 7.77-1.88 12-.93-3.5 13.2-12 21-25.24 23.57a99 99 0 0 0-17 4.43c4.54-7.1 12.41-9 17.66-15-6.95.49-11.38 5.59-17.65 6.93z" fill="#eed566"/><path d="M52.85 70.05a65.67 65.67 0 0 1 8.31-11.33l30-3.63c-1.94 4.56-5.67 7.06-8.22 11.14z" fill="#bdac76"/><path d="M27.42 70.14a16.55 16.55 0 0 1-4.22-8.71l13.39-15.07 2.53 9.92c-4.64 2.48-6.81 7.48-10.81 10.62-1 .8-.91 2.07-.89 3.24z" fill="#625d4a"/><path d="M31.73 74.79a6.94 6.94 0 0 1-3.31 5.4 15.5 15.5 0 0 1-11.91-11.88c-.71-4 1.83-6 5.34-8 .31 6.81 2.8 12.09 9.88 14.48z" fill="#978754"/><path d="M22.23 84.22a6.1 6.1 0 0 1-1.28 3.51A6.26 6.26 0 0 1 16.77 90a19.53 19.53 0 0 1-6.34-4.79 13.62 13.62 0 0 1-3.74-7.79c-.3-3.73 2.13-5.58 5.2-7.11 1.23 8.59 4.14 12.59 10.34 13.91z" fill="#978753"/><path d="M27.42 70.14c0-1.17-.11-2.44.9-3.24 4-3.14 6.17-8.14 10.81-10.62.33 2.26 1.84 4.33 1.16 6.62l-8.9 9.2a3.65 3.65 0 0 1-3.97-1.96z" fill="#4e493b"/><path d="M5.16 79.6c1.61 4.82 4.6 8.05 8.61 11.16-4.84 1.81-8 .57-10.34-3-1.86-2.95-1.7-5.68 1.73-8.16z" fill="#66614e"/><path d="M14.74 70.53c1.72 4.45 4.83 7.74 8.67 10.67a7.67 7.67 0 0 1-3.27-.19 8.4 8.4 0 0 1-5.87-7.12 7.72 7.72 0 0 1 .47-3.36z" fill="#6d6956"/><path d="M78.03 23.41c1.15 2.38-.29 4.89-.44 5.14-1.87 3.13-6.56 3.94-9.83 2.63-.71-.29-3.39-1.36-3.89-3.82s1.59-4.52 2.09-5a8.4 8.4 0 0 1 8.29-1.71 5.86 5.86 0 0 1 3.78 2.76z" fill="#968652"/></svg>