<svg xmlns="http://www.w3.org/2000/svg" viewBox="0 0 100 85.19"><path d="M100 45.11l-8.2 11.5c-1.79-1.38-2.5-3.52-1.6-5.09a141.16 141.16 0 0 1 8-11.77c.15-.21 1.18.23 1.8.36v5zM0 36.11c2.59.37 5.19.69 7.77 1.14a2.55 2.55 0 0 1 2.15 2.87c0 1.52-1.05 1.69-2.24 2.07-3.08 1-6 2-7.68-2.08v-4zM70.69 54.81L37.03 68.29c-1.87-3.07-1.11-4.86 1.74-6.09 8.54-3.67 17.09-7.32 25.59-11.09 3.61-1.59 5.71-.81 6.33 3.7z" fill="#a7a9ac"/><path d="M85.8 46.92l-12.63-4.16c4-9.79 11.54-11.44 21.27-9.24zM10.88 85.16a8.09 8.09 0 0 1-5.19-3.09c-1.28-1.83 0-3.1 1-4.39 2.69-3.37 5.42-6.7 8.07-10.1 1.47-1.88 3.36-2.32 5.25-1.15s2.94 3.4 1.8 5.18c-2.84 4.45-6.17 8.59-9.37 12.8a3.77 3.77 0 0 1-1.56.75zM75.39 27.8c-10.25.4-10.25.4-13.46-8.93a24.5 24.5 0 0 1 5.77-5.06z" fill="#fff"/><path d="M76.53 32.56l-8.12 9.38a22.9 22.9 0 0 1-8.08-3.5c4.12-8.21 4.55-8.37 16.2-5.88z" fill="#6fcbd5"/><path d="M29.56 73.93c-1.92-1-1.74-2.67-2.15-4-2-6.69-5.9-9.28-13-8.32-1.7.23-3.73.88-4-1.38s2.07-2.09 3.67-2.24c10.35-1 16.28 3.31 17.23 12.47.23 1.58.43 2.94-1.75 3.47z" fill="#6dcbd4"/><path d="M64.3 44.84L47.51 52.1l-3.08-5.28c6.64-1.91 12.01-8.88 19.87-1.98zM48.44 11.85c-1.6 7.49-17.28 14.51-23.57 10.79zM74.4 1.16c-7.19 6-7.19 6-16.21 4.53-.47-2.06.91-3.58 1.59-5.68z" fill="#fff"/><path d="M33.98 49.52c-.85 2.24-1.59 4.24-2.4 6.22a5.13 5.13 0 0 1-1.07 1.18c-1.49-.72-2.95-1.47-4.44-2.13s-3-1.25-4.59-1.88c4.78-6.42 5.83-6.75 12.5-3.39z" fill="#6dcbd4"/><path d="M52.01 15.41c1.94-7.26 1.94-7.26 13.17-4.91-4.54 6.21-5.92 6.73-13.17 4.91z" fill="#6ecbd4"/><path d="M9.89 21.11l4.89 2.17c-4.52 8.79-5.27 9.23-13 7.27z" fill="#fff"/><path d="M14.42 31.85c4.16-7.11 4.16-7.11 12-4.23-2.15 5.42-2.19 5.43-12 4.23z" fill="#71ccd5"/><path d="M12.26 35.09l10.65 1.15c0 5.72-5.22 4.07-7.71 6.31-1.78-2.32-2.13-4.76-2.94-7.46zM15.64 45.4c3.39-.54 5.81-3.39 10.07-1.51l-8 7.57z" fill="#fff"/><path d="M84.28 59.04c-3.31-2.14-7.31-3.19-8.25-7.8 6.77.17 9.01 2.21 8.25 7.8zM73.08 9.96c2.22-2.14 4.35-4.29 7.57-5.36.4 2.52 1.35 5.09-1.53 6.24-1.82.73-4.26 2.72-6.04-.88z" fill="#a7a9ac"/><path d="M39.1 34.56c2-4 5.41-4.53 9.42-4.52-1.59 4.92-5.51 6.73-9.42 4.52z" fill="#71ccd5"/><path d="M44.19 53.81l-9.23 4.08c2.17-3.9 2.48-7.22 5.52-9.06 2.27 1.01 2.68 3 3.71 4.98zM36.64 36.35l-8.2 5.58c-1.64-1.57-1.49-3.48-2.13-5.58h10.33zM41.34 44.21c2.45-6.06 5.73-7.49 11.73-5.58-3.43 2.59-7.34 3.53-11.73 5.58zM44.82 21.32c-.35 6.25-2.68 7.48-9 5 2.64-2.26 5.82-3.23 9-5zM61.17 27.07a34 34 0 0 1-9.93 2.09l8-6.39a6.22 6.22 0 0 1 1.93 4.3zM56.46 19.93l-8.3 7c.64-3.33.86-5.54 2.31-7.63zM31.38 44.3l6.94-5.49c-.94 3.28-.3 8.51-6.94 5.49zM35.77 31.97l-7.28.43c2.1-5.56 4.9-2 7.28-2v1.58zM51.52 33.75c2.7-1.26 4.82-2 7.36-1.63-1.24 4.54-3.7 3.94-7.36 1.63z" fill="#fff"/></svg>