<svg xmlns="http://www.w3.org/2000/svg" viewBox="0 0 100.08 97.13"><path d="M86.72 60.21L65.3 49.37v17.75L58 61.59l-16.43 20.5-5.46-29.57-15.12 6.18 6.81-14.5c-5-1.57-9.9-1.09-15.29-1.62l-1.57-29.84L60.9-.01l37.57 37.74zm7.52-21.95L59.72 3.91l-45 11.51c.64 8.19-.23 16 1.46 24l17.15 1-5.07 11.41 10.47-4.2 4.85 26.22 13.55-16.76c2.27-.23 2.77 2.44 5.21 1.73v-15l22.91 11.64z" fill="#faca3f"/><path d="M30.4 60.7c-5.58.1-9.61 5.13-15.66 3.45 5.46 5.26-1.87 12.54 3.55 18.4 2.83-5.38-2.57-11 2.39-15.42 4.45-1.3 7.89-.17 9.56 4.76 0 5.31.06 10.61-1 15.88-.46 2.27-1.18 5.45 3 5.59 1.68-2 .69-3.92.41-5.84-.41-2.8-2-5.73.39-8.42.08 1.09.27 2 2.3 1.37-.73-6.72-1.86-13.37-4.94-19.77zM15.96 50.05c-2.65-.52-5.53.35-7.75-2.11-1.47-7.38-1.9-15.07-2.4-22.85a17.87 17.87 0 0 0-3.14 2.33 7.44 7.44 0 0 0-2.39 3.14 5.67 5.67 0 0 0-.28 2 1.77 1.77 0 0 0 .58 1.19c.69.54 1.45 0 2.27.42a2.5 2.5 0 0 1 1.19 1.85 33.21 33.21 0 0 0 4.17 17.82c1.28 4.87-3.29 10.34.61 14.93l1.72-.09-.62-11.91 2.71-1.5c1.11-1.32-.7-2.14-.37-3.06 1.04-1.22 2.92-.6 3.7-2.16zM89.09 66.99c-5.21-1.29-7.71-6.52-12.71-7.16-6.9 1.83-4.23 9.12-7.39 13-2.67-.64-4.22-3.08-7.25-3.38-7.81 3.84-9.86 12.75-15.76 18.92 3.36 2-.93 6.66 4 8.73-1.24-4.89-1.57-9.21 2.71-12.44 1.48 1.79-.21 4.33 2.81 5.14 1.55-3.57-1.12-7.07-.15-10.56 1.37-4.9 5.68-4.17 8.82-5.3 5.82 3.12 5.77 7.87 4.52 13.1-1.19 5-1 5.39 2.44 6.86 1.58-1.1 1-2.69.73-4.07-1.55-6.69-.19-13.26.71-19.84.33-2.4.65-5.12 4.13-5.8 4.48 1.45 5.4 5.6 6.54 9.59v9.07c.3 2.92-2.73 6.4 0 8.91l1.66-.23v-17.7c.48-1.44 1.3-2.28 2.87-1.71 1.59 1.6-1.54 5.38 2.78 5.74 1.19-2.18-.55-4.66 1-6.79.64-.58 2 .41 2.55-1.16.19-4.93-1.18-11 6-13v-7c-4.99 4.83-5.74 12.52-11.01 17.08zM47.37 19.17l-4.12-3.54q.7-1.12 1.4-2.29t1.48-2.51l12.59-3.08a4.51 4.51 0 0 1 3.7 3.24L43.06 44.74c-3-2.09-5.27 1.32-8.65 1l3.82-8.55-6.07-.58c.43-2.77 1.41-5 3.84-6.45l6.66 5 9.8-12.17zM82.3 49.69l-11.41-5.2 8.63-15.07 10 9.31zM32.79 27.86c-.5 1.25-1.11 2.6-1.85 4a44.41 44.41 0 0 1-2.29 3.89 26.47 26.47 0 0 1-10.19-.77c1.06-7.73 6.95-13 9.59-19.95l8.22-2.14-9.24 10.69a38.2 38.2 0 0 0 2.06 1.72 38.29 38.29 0 0 0 3.7 2.56z" fill="#b62025"/><path d="M29.44 23.9l9-9.76a53.44 53.44 0 0 1 11.33 9.35l-7.68 9.35a73 73 0 0 1-12.65-8.94zm17.52-.66l-7.47-5.92-6.87 6.42a5.24 5.24 0 0 0 2.84 1.88c2.36-.12 2.82-3.4 5.33-2.34 1.34 2.29-1.63 3.09-1.54 4.86a2.61 2.61 0 0 0 2.69 1.51c1.59-1.79 3.62-3.5 5.02-6.42zM71.96 21.69a41 41 0 0 1 2.06 9.53c-2.41.83-4.95 1.78-7.57 2.87-2.25.94-4.38 1.9-6.38 2.87a33.91 33.91 0 0 1-3-10.9q3.49-1.15 7.22-2.25 3.91-1.15 7.67-2.12zm-8.24 7.88a1 1 0 0 1 .63.13c.46.29.37.88.78 1.44a2 2 0 0 0 1 .69 9.63 9.63 0 0 0 5.68-2.45l-1.42-5.39-10 3.28a14.15 14.15 0 0 0 1.19 6.2 1.78 1.78 0 0 0 1.38-.41 2.11 2.11 0 0 0 .47-1.47 3.74 3.74 0 0 1 0-1.69 1.38 1.38 0 0 1 .29-.33z" fill="#faca3f"/><path d="M73.13 33.73a63.65 63.65 0 0 0-6.59 1.83c-2.21.75-3.31 1.12-3.61 1.24-1.34.56-2.77.85-4.14 1.33a1.92 1.92 0 0 1-1 .09 1.78 1.78 0 0 1-.68-.31c.18-2.94-.7-5.68-1.44-9.42l-12.51 21.8 3 15.56 9.21-13.24a1.47 1.47 0 0 1 .84-.62 3.6 3.6 0 0 1 1.66.44 5.57 5.57 0 0 0 1.49.23V38.99l9.21 4.36c1.29-3.66 4.09-6.02 4.56-9.62zM60.93 23.57l-2.6.28 6.28-11c2.45 2.43 5.1 4.12 6.46 7.06zM18.2 27.06l-.65-9.66 7.28-1.88zM74.5 23.57a5.63 5.63 0 0 1 3.53 3l-1.47 2.36c-2.18-1.47-1.09-3.78-2.06-5.36zM39.35 12.4c1-.6 1.75-.86 2.68-.07-.59 1.46-1.25 1.87-2.68.07z" fill="#b62025"/></svg>