<svg xmlns="http://www.w3.org/2000/svg" viewBox="0 0 95.73 100.51"><path d="M39.7 100.52c-11-3.13-20.35-8.59-26.74-18.4-.63-1-1.54-1.78-1.42-3.15 1.77-1.56 3.86-2.42 7.41-2.49l14.84 15.75c9.58 2.56 18-3.89 27.42.86l-11.5 7.43h-10z" fill="#6e3b6f"/><path d="M80.49.64a4.12 4.12 0 0 1 2.24 3.85 23.77 23.77 0 0 1-9.2 11.36l-9.85-7.07c3.73-3.7 8-5.76 12-8.26a5.28 5.28 0 0 1 4.81.12z" fill="#d1b5d7"/><path d="M65.83 29.89a5.57 5.57 0 0 1 2.88 2 5.47 5.47 0 0 1 1 2.44 5.57 5.57 0 0 0 .25 3.36c.87 2 2.93 2.71 6.39 4 3.78 1.36 7.51 2.85 11.28 4.25 5.42 2 6.66 2.65 6.83 3.79.25 1.6-1.68 3.35-3.3 4.14a9.19 9.19 0 0 1-6.31.29c-5-1.19-9.72-3.63-14.68-2.5l-8-4.51a12.07 12.07 0 0 0-2.76-6.08c-.36-2.29 1.82-2.72 2-5 0-.85-1.12-1.73-2.35-2.2-7.59-2.85-15-5.92-23.59-3.6-4.2 1.13-9 .48-13.44.16-8.39-.6-14.69-8-14-17.14A2.77 2.77 0 0 1 8.85 11a2.65 2.65 0 0 1 2.64-.54 55.62 55.62 0 0 0 14.49 6.48c4 1.14 9.25 2.63 15.62 2 9.69-1 16.63-6.26 20-9.33l9.86 7.77c-1.34 3-4.43 3.77-6.19 6-1.3 1.63-1.78 2.7-1.58 3.83a4.29 4.29 0 0 0 2.14 2.68z" fill="#d0b5d6"/><path d="M46.4 63.93c-7-2-12 1.23-17.15 4.92-1.2-5.14.24-10.52-4.38-13.22-3.61.11-3.69 3-4.93 4.64a3.4 3.4 0 0 1-4.14-1.52c3.48-8.47 12.81-11.65 18.11-19.35 4 7.44 10.42 10.54 18.18 12.69-2.01 3.92-4.84 7.02-5.69 11.84zm-7.87-3.06c.39-2.47-.22-3.79-2.45-4.35-2.17.41-4.65.56-6.24 2.9.28 2.85 1.78 4.15 4.82 4.12z" fill="#d1b5d6"/><path d="M32.45 82.8c.82-2.82-1.74-4.08-2.55-6.28a6.63 6.63 0 0 1 2.06-2.75 8.5 8.5 0 0 1 5.49-1.38c2.24 0 2.23.54 4.25.5a14.46 14.46 0 0 0 5.25-1.25c2.8-1.11 3.26-2 5.38-2.25a6.17 6.17 0 0 1 3.01.18c5.32 1.16 5.93.23 8.44 1.44a11.49 11.49 0 0 1 3.85 3.07c-.81-.2-5.56-1.33-9.35 1.56a9.39 9.39 0 0 0-2.39 2.72c.75 4 4 3 6.56 4-5.44 0-9.26 4.33-14.39 5-5.5.67-10.27-1.9-15.61-4.56zM92.73 65.51c4.93 14.36-12.78 34.57-28.24 32.68-1.2-2.51-.45-4.71 1-6.67 2.71-2.07 6.46-.88 7.9-2.39 3.89-5-3.72-9.77 1.56-13.57 2.52-.08 3.3 2.66 5.47 2.6 6.52-.42 4.9-9.12 9.35-11.84a5.73 5.73 0 0 1 1.35-.58 5.9 5.9 0 0 1 1.61-.23z" fill="#6d3b6e"/><path d="M50.19 48.32c7.5-1.85 13.32 1 19.08 5.33-.16 6.25 6.56 8.85 8.49 14.61-2.27 3.44-5.09 3-7.85.87a17 17 0 0 1-4.87-5.58C61.71 57 57.82 50.97 50.19 48.32z" fill="#d1b5d7"/><path d="M59.12 45.35H45.45c-4.3-2.91-6-8-9.53-12.4 7.83-1.23 14.72-.59 21.25 4.05-1 2.63-.43 5.25 1.95 8.35z" fill="#d1b5d6"/><path d="M3.08 60.2c-2.57-4.88-3.29-7.94-3-12.53 6.79-4.55 14.89-6.63 23.15-8.79-8.16 5.69-12.55 14.88-20.15 21.32z" fill="#a4d390"/><path d="M18.08 6.57c2.21-2.29 3.85-.75 5.37.4 6.51 5 13.54 5.57 21.17 3.06 4.53-1.49 9.22-2.49 14.6-3.91-10.66 10-25.53 12.28-35.86 5.88-2.17-1.34-4.55-2.64-5.28-5.43z" fill="#703e70"/><path d="M66.73 29.2a64.69 64.69 0 0 1 14.79-4 18.68 18.68 0 0 1 6.12 9.25 46.32 46.32 0 0 1-16.2 1 5 5 0 0 0-.31-2.19 6 6 0 0 0-1.81-2.34 10.72 10.72 0 0 0-2.59-1.72z" fill="#d1b5d7"/><path d="M26.46 69.02c-3.13 2.38-3.13 2.38-4.66 5.66-5.68-3-10.69-1.15-15.65 3.11-1-5.83 3.14-8 5.64-10.89 12.3-1.38 12.3-1.38 14.67 2.12z" fill="#a5d391"/><path d="M95.73 26.08a9.25 9.25 0 0 1-1.32 3.81 9.44 9.44 0 0 1-4.33 3.67 23.11 23.11 0 0 0-5.21-8.83 26.83 26.83 0 0 1 5.22-1.21c3.25-.42 4.11.09 4.52.44a3.55 3.55 0 0 1 1.12 2.12z" fill="#d1b6d7"/><path d="M44.95 64.85c3.66-.73 6.93-.28 10 2.79a9.66 9.66 0 0 0-5.73 1.26 19.78 19.78 0 0 1-3.25 1.94 14 14 0 0 1-2.5.82 4.7 4.7 0 0 1-.75-2.74c.13-1.55 1.15-2.8 2.23-4.07z" fill="#a6d391"/><path d="M70.34 85.57c-3.5-1.17-2.87-5.27-6.29-6.41-1.33.14-3.58 2.81-5.32-.86 1.81-3 4.43-3.49 7.41-1.9 3.48 1.87 4.64 4.95 4.2 9.17z" fill="#a9d596"/><path d="M5.13 70.63l-3.94-4.67c2.75-2.52 5.67-1.18 9.43-1.34z" fill="#764777"/><path d="M41.34 90.04l-4.57 1.35c-1.67-.4-2.5-1.5-3.09-3.14 3.15-3.18 5.02 1.59 7.66 1.79z" fill="#add79b"/><path d="M31.03 81.71c-4.23 1.41-5 0-5.64-3.06 3.48-.08 3.84 1.8 5.64 3.06z" fill="#add79a"/><path d="M23.17 57.57c2 1.23 2 1.23 2.14 3.67-2.38-.38-2.88-1.52-2.14-3.67z" fill="#abd698"/><path d="M57.14 65.76l-4-2.24c2.5-1.43 3.51-1.38 4 2.24z" fill="#7d507e"/><path d="M37.18 59.06c-1.78 1.94-2.59 4.22-5.47 1.82 1.32-1.66 2.48-2.74 5.47-1.82z" fill="#b1d9a0"/></svg>