<svg xmlns="http://www.w3.org/2000/svg" viewBox="0 0 94.9 100"><title>death_knight</title><path d="M163.37,101.93c3.76,0.36,5.63.54,7,.78a42.43,42.43,0,0,1,6.2,1.61c-7.62,5.3-14.61,10.18-16.91,19-6.51,2-11-3.74-17.41-4.07,1.58,5,1.61,9.62-3,13.05-2.46.24-4.44-1.71-7.71-2.26,1.77,7.45,4,14.45,4.9,22.56l-20.61,13.63c6.39-11.16,4.55-21.66,3.8-32.22-0.72-10.1,2-19.37,9.84-26.61,2.21,1.13,1.84,4,3.74,5.08,4.14-2.43,2.67-8.57,7.21-10.66,4.62-1.13,7.7,5.51,12.6,3.11,0.33-2.15-1.16-2.84-1.6-4l4.44,0.33,0.4,0C156.54,101.34,160.38,101.65,163.37,101.93Z" transform="translate(-104.48 -100.94)" fill="#d0d1d3"/><path d="M155.36,200.95a42.46,42.46,0,0,0-10-7.06c-2.06-1-3.76-2.23-2.93-5.34,4.27-3.13,8.93-1.78,13.41-.17,6.07,2.18,12.11,3.61,18.43,1.36,2.26-.81,4.43-1.89,7.22-3.09-0.67,4.44-4.56,5.1-6.6,7.44l2.19,1.76c-6.41,1.46-12.51.88-18.58,0.95-1.08-.35-2.21-1.54-3.19.16,0.16,1.6,2.37,2.15,2,4h-2Z" transform="translate(-104.48 -100.94)" fill="#087e8f"/><path d="M136.15,184.46c4.28-6.53,7.52-13.51,12.57-19.45a112.48,112.48,0,0,1,21.78,5.89c0.35-3.39-2-5.53-2.55-8.36l5.17-4.52,8.49,1.59c-1-6-5.7-10.87-3.84-17.68,8.25-2.67,13.73-8.92,18.59-17.5a95.66,95.66,0,0,1,2.78,29.88l-4.41,2.31c2.65,13.44-1.36,19.95-14.8,23.92-1.12-2.43,1.11-4.34,1-7.16-2.53,1.28-3.36,3.69-4.52,5.57-1.72,2.77-4.27,4.08-7.09,3.61-3.16-.52-6.35-0.1-9.4-0.73A36.66,36.66,0,0,0,136.15,184.46Z" transform="translate(-104.48 -100.94)" fill="#d0d1d3"/><path d="M143.33,156.88c-2.25-4.08-4.07-8.15-4.23-13.08-0.12-3.76-3.16-6.78-5.16-10.9l6.71,4.43a24.75,24.75,0,0,1,6.51-7.5c0.63-2.45-1.79-4-1.17-7.26,5.77,5.44,13.43,4.13,19.83,7.21l9.68-4.91,0.83,0.56-5.06,10c3.11,6.25,1,14.07,6.59,19.76-2.95,1.28-4.37-1-6.73-.93a26.18,26.18,0,0,1-7.66,6.79l3.4,5.37c-6.71-5.12-15.93-3.31-22.49-8.43Zm27.31-12a14.26,14.26,0,1,0-28.5.13A14.25,14.25,0,1,0,170.64,144.85Z" transform="translate(-104.48 -100.94)" fill="#e6a025"/><path d="M121.84,180.08l8.87-1.82-14.09,13.36c-2.35-1.05-5.07-4.43-7.29-8.09l13.34-12.83C124.46,173.36,120.82,176.28,121.84,180.08Z" transform="translate(-104.48 -100.94)" fill="#818285"/><path d="M143.33,156.88l1,1.07-4.91,13.4-15.48,6,6.24-16.06Z" transform="translate(-104.48 -100.94)" fill="#e6a025"/><path d="M107.33,166.45c-0.56-5.5-2.14-10.24.89-15.51l-3.74-11c0.43-1.76,1.85.48,2.41-.8a23.63,23.63,0,0,1,5.36-10.94c-0.83,6.44.33,11.54,1.79,16.6C116.47,153.15,111.83,159.34,107.33,166.45Z" transform="translate(-104.48 -100.94)" fill="#097e8f"/><path d="M163.88,122.65l26.46-12L177.7,138.82c-2.12-8.69,4.17-13.7,4.93-20.44-6.25.94-11.53,6.4-18.31,5.6Z" transform="translate(-104.48 -100.94)" fill="#848587"/><path d="M158.46,155.66c-2.08-2.12-4.32-.87-6.34,0a8.24,8.24,0,0,1-6.41-6.28c-0.33-2.18,3.28-4.56-.17-6.59,3.25-4.82,4.88-10.69,11.85-9.75,4.47,0.6,9.89,6.18,10.52,10.89C168.83,150.85,163.11,152.64,158.46,155.66Zm-3.55-11a15.25,15.25,0,0,0-2.14-6.51c-1.24,1.77-3,3.18-2.13,5.79Zm8.33,4a18.65,18.65,0,0,0-7.14-2.49c0.86,2.05.12,3.91,2.36,5Zm-10.46,2.36c1.15-1,2-2.11.65-3.67a2.36,2.36,0,0,0-3.18,1.78C150.84,149.85,151.27,150.92,152.77,150.93Z" transform="translate(-104.48 -100.94)" fill="#fff"/></svg>