<svg xmlns="http://www.w3.org/2000/svg" viewBox="0 0 92.41 99.41"><title>paladin</title><path d="M184.24,100.7l13.14,50.45L164.13,155l-12.28-49.25Zm1.84,28.63c2.22-8.82-5.08-12.19-12-11.31-5.56.71-9.17,4.89-8.74,9.72s3.7,7,9.56,7.29C179.79,135.31,183.28,133.46,186.08,129.32Z" transform="translate(-104.97 -100.69)" fill="#e6e6e7"/><path d="M116.63,156.47c2.18-6.14,8.56-8.68,8.73-15.77-6.67,5.67-12.67,10.89-20.09,14a2,2,0,0,1-.28-0.84c7.42-9.33,12.3-19.94,16.65-31,3.74-9.49,11.11-15.77,21-19.05,1.47,3.7-.56,5.79-2.65,7.69-6.35,5.76-7.47,12.51-4.39,20.35,2.85,7.26,1.86,10.37-4.52,14.87C126.65,149.9,122,152.85,116.63,156.47Z" transform="translate(-104.97 -100.69)" fill="#eed566"/><path d="M150.93,170.65c-4-17-7.72-33-11.51-48.9-0.58-2.44.68-4.14,1.94-5.9,1.89-2.64,3.8-5.26,6.38-8.85l12.53,52.17Z" transform="translate(-104.97 -100.69)" fill="#bcac76"/><path d="M144.64,192.08c5.26-14.74,17.4-17.58,30.23-19,3.91-.45,7.77-1.88,12-0.93-3.5,13.2-12,21-25.24,23.57a99,99,0,0,0-17,4.43c4.54-7.1,12.41-9,17.66-15C155.34,185.64,150.91,190.74,144.64,192.08Z" transform="translate(-104.97 -100.69)" fill="#eed566"/><path d="M157.82,170.74a65.67,65.67,0,0,1,8.31-11.33l30-3.63c-1.94,4.56-5.67,7.06-8.22,11.14Z" transform="translate(-104.97 -100.69)" fill="#bdac76"/><path d="M132.39,170.83a16.55,16.55,0,0,1-4.22-8.71l13.39-15.07,2.53,9.92c-4.64,2.48-6.81,7.48-10.81,10.62C132.28,168.39,132.37,169.66,132.39,170.83Z" transform="translate(-104.97 -100.69)" fill="#625d4a"/><path d="M136.7,175.48a6.94,6.94,0,0,1-3.31,5.4A15.5,15.5,0,0,1,121.48,169c-0.71-4,1.83-6,5.34-8C127.13,167.81,129.62,173.09,136.7,175.48Z" transform="translate(-104.97 -100.69)" fill="#978754"/><path d="M127.2,184.91a6.1,6.1,0,0,1-1.28,3.51,6.26,6.26,0,0,1-4.18,2.27,19.53,19.53,0,0,1-6.34-4.79,13.62,13.62,0,0,1-3.74-7.79c-0.3-3.73,2.13-5.58,5.2-7.11C118.09,179.59,121,183.59,127.2,184.91Z" transform="translate(-104.97 -100.69)" fill="#978753"/><path d="M132.39,170.83c0-1.17-.11-2.44.9-3.24,4-3.14,6.17-8.14,10.81-10.62,0.33,2.26,1.84,4.33,1.16,6.62l-8.9,9.2A3.65,3.65,0,0,1,132.39,170.83Z" transform="translate(-104.97 -100.69)" fill="#4e493b"/><path d="M110.13,180.29c1.61,4.82,4.6,8.05,8.61,11.16-4.84,1.81-8,.57-10.34-3C106.54,185.5,106.7,182.77,110.13,180.29Z" transform="translate(-104.97 -100.69)" fill="#66614e"/><path d="M119.71,171.22c1.72,4.45,4.83,7.74,8.67,10.67a7.67,7.67,0,0,1-3.27-.19,8.4,8.4,0,0,1-5.87-7.12A7.72,7.72,0,0,1,119.71,171.22Z" transform="translate(-104.97 -100.69)" fill="#6d6956"/><path d="M183,124.1c1.15,2.38-.29,4.89-0.44,5.14-1.87,3.13-6.56,3.94-9.83,2.63-0.71-.29-3.39-1.36-3.89-3.82s1.59-4.52,2.09-5a8.4,8.4,0,0,1,8.29-1.71A5.86,5.86,0,0,1,183,124.1Z" transform="translate(-104.97 -100.69)" fill="#968652"/></svg>